<svg xmlns="http://www.w3.org/2000/svg" xmlns:xlink="http://www.w3.org/1999/xlink" width="500" zoomAndPan="magnify" viewBox="0 0 375 374.999991" height="500" preserveAspectRatio="xMidYMid meet" version="1.2"><defs><clipPath id="3dbf26494f"><path d="M 120 327.40625 L 239.664062 327.40625 L 239.664062 363.378906 L 120 363.378906 Z M 120 327.40625 "/></clipPath><clipPath id="0645dd4c3c"><path d="M 3.242188 213 L 91 213 L 91 310 L 3.242188 310 Z M 3.242188 213 "/></clipPath><clipPath id="db1e40c0fc"><path d="M 135 11.765625 L 255 11.765625 L 255 48 L 135 48 Z M 135 11.765625 "/></clipPath><clipPath id="135661c99c"><path d="M 284 65 L 371.492188 65 L 371.492188 162 L 284 162 Z M 284 65 "/></clipPath></defs><g id="c022a68800"><g style="fill:#000000;fill-opacity:1;"><g transform="translate(113.329765, 84.312556)"><path style="stroke:none" d="M 1.1875 -0.828125 C 1.1875 -1.179688 1.265625 -1.445312 1.421875 -1.625 C 1.585938 -1.800781 1.816406 -1.890625 2.109375 -1.890625 C 2.410156 -1.890625 2.644531 -1.800781 2.8125 -1.625 C 2.988281 -1.445312 3.078125 -1.179688 3.078125 -0.828125 C 3.078125 -0.492188 2.988281 -0.234375 2.8125 -0.046875 C 2.644531 0.140625 2.410156 0.234375 2.109375 0.234375 C 1.847656 0.234375 1.628906 0.148438 1.453125 -0.015625 C 1.273438 -0.179688 1.1875 -0.453125 1.1875 -0.828125 Z M 1.1875 -0.828125 "/></g></g><path style=" stroke:none;fill-rule:nonzero;fill:#0150ac;fill-opacity:1;" d="M 237.5625 300.507812 C 239.171875 299.761719 240.816406 299.09375 242.375 298.246094 L 247.933594 309.421875 C 246.21875 310.355469 244.410156 311.097656 242.636719 311.921875 L 237.5625 300.507812 "/><path style=" stroke:none;fill-rule:nonzero;fill:#0150ac;fill-opacity:1;" d="M 244.011719 297.40625 C 244.792969 296.996094 245.589844 296.605469 246.371094 296.1875 L 248.671875 294.859375 L 254.878906 305.695312 L 252.339844 307.15625 C 251.480469 307.613281 250.605469 308.050781 249.738281 308.5 L 244.011719 297.40625 "/><path style=" stroke:none;fill-rule:nonzero;fill:#0150ac;fill-opacity:1;" d="M 250.269531 293.941406 L 251.421875 293.277344 L 252.539062 292.554688 L 254.777344 291.117188 L 261.597656 301.578125 L 259.132812 303.160156 L 257.902344 303.949219 L 256.636719 304.679688 L 250.269531 293.941406 "/><path style=" stroke:none;fill-rule:nonzero;fill:#0150ac;fill-opacity:1;" d="M 256.328125 290.128906 L 260.664062 287.042969 L 268.074219 297.085938 L 263.300781 300.484375 L 256.328125 290.128906 "/><path style=" stroke:none;fill-rule:nonzero;fill:#60e6ff;fill-opacity:1;" d="M 187.460938 311.167969 L 192.78125 311.03125 L 193.3125 323.511719 L 187.460938 323.65625 L 187.460938 311.167969 "/><path style=" stroke:none;fill-rule:nonzero;fill:#60e6ff;fill-opacity:1;" d="M 194.621094 310.945312 L 199.925781 310.539062 L 201.167969 322.96875 L 195.332031 323.414062 L 194.621094 310.945312 "/><path style=" stroke:none;fill-rule:nonzero;fill:#60e6ff;fill-opacity:1;" d="M 201.75 310.3125 L 204.386719 309.980469 C 205.265625 309.855469 206.152344 309.785156 207.015625 309.605469 L 208.980469 321.941406 C 208.023438 322.132812 207.046875 322.21875 206.082031 322.351562 L 203.179688 322.722656 L 201.75 310.3125 "/><path style=" stroke:none;fill-rule:nonzero;fill:#60e6ff;fill-opacity:1;" d="M 208.828125 309.28125 C 210.570312 308.957031 212.324219 308.699219 214.042969 308.257812 L 216.71875 320.457031 C 214.828125 320.9375 212.894531 321.230469 210.976562 321.582031 L 208.828125 309.28125 "/><path style=" stroke:none;fill-rule:nonzero;fill:#0150ac;fill-opacity:1;" d="M 262.128906 285.929688 L 264.21875 284.285156 L 265.265625 283.460938 C 265.617188 283.191406 265.96875 282.921875 266.296875 282.621094 L 274.273438 292.222656 C 273.914062 292.546875 273.527344 292.847656 273.140625 293.148438 L 271.992188 294.050781 L 269.691406 295.863281 L 262.128906 285.929688 "/><path style=" stroke:none;fill-rule:nonzero;fill:#0150ac;fill-opacity:1;" d="M 267.683594 281.410156 C 269.019531 280.242188 270.394531 279.121094 271.648438 277.859375 L 280.167969 286.984375 C 278.78125 288.363281 277.277344 289.605469 275.808594 290.894531 L 267.683594 281.410156 "/><path style=" stroke:none;fill-rule:nonzero;fill:#0150ac;fill-opacity:1;" d="M 272.980469 276.589844 C 273.617188 275.972656 274.277344 275.378906 274.894531 274.742188 L 276.730469 272.8125 L 291.839844 287.226562 L 289.691406 289.476562 C 288.96875 290.21875 288.203125 290.917969 287.460938 291.640625 L 272.980469 276.589844 "/><path style=" stroke:none;fill-rule:nonzero;fill:#36b7f8;fill-opacity:1;" d="M 278 271.480469 C 278.300781 271.15625 278.625 270.847656 278.910156 270.507812 L 279.777344 269.5 L 281.519531 267.484375 L 291.03125 275.566406 L 289.117188 277.78125 L 288.160156 278.890625 C 287.839844 279.261719 287.488281 279.601562 287.160156 279.960938 L 278 271.480469 "/><path style=" stroke:none;fill-rule:nonzero;fill:#36b7f8;fill-opacity:1;" d="M 282.722656 266.089844 L 286.003906 261.902344 L 295.96875 269.417969 L 292.351562 274.027344 L 282.722656 266.089844 "/><path style=" stroke:none;fill-rule:nonzero;fill:#36b7f8;fill-opacity:1;" d="M 287.089844 260.410156 L 288.628906 258.238281 C 289.136719 257.511719 289.679688 256.8125 290.140625 256.050781 L 300.519531 262.976562 C 300.011719 263.8125 299.414062 264.589844 298.859375 265.390625 L 297.160156 267.78125 L 287.089844 260.410156 "/><path style=" stroke:none;fill-rule:nonzero;fill:#36b7f8;fill-opacity:1;" d="M 291.132812 254.5 L 292.566406 252.257812 L 292.925781 251.699219 L 293.257812 251.121094 L 293.917969 249.964844 L 304.679688 256.277344 L 303.953125 257.546875 L 303.585938 258.183594 L 303.195312 258.800781 L 301.613281 261.269531 L 291.132812 254.5 "/><path style=" stroke:none;fill-rule:nonzero;fill:#36b7f8;fill-opacity:1;" d="M 294.835938 248.367188 L 295.5 247.21875 C 295.722656 246.832031 295.945312 246.449219 296.140625 246.050781 L 297.347656 243.679688 L 308.460938 249.355469 L 307.125 251.964844 C 306.910156 252.402344 306.664062 252.824219 306.417969 253.25 L 305.691406 254.519531 L 294.835938 248.367188 "/><path style=" stroke:none;fill-rule:nonzero;fill:#36b7f8;fill-opacity:1;" d="M 298.1875 242.042969 C 298.609375 241.261719 298.957031 240.445312 299.324219 239.636719 L 300.417969 237.214844 L 311.839844 242.230469 L 310.632812 244.902344 C 310.230469 245.789062 309.847656 246.691406 309.382812 247.550781 L 298.1875 242.042969 "/><path style=" stroke:none;fill-rule:nonzero;fill:#36b7f8;fill-opacity:1;" d="M 301.167969 235.527344 L 303.117188 230.578125 L 314.8125 234.921875 L 312.664062 240.375 L 301.167969 235.527344 "/><path style=" stroke:none;fill-rule:nonzero;fill:#36b7f8;fill-opacity:1;" d="M 303.726562 228.84375 L 304.578125 226.324219 L 305.003906 225.066406 L 305.21875 224.433594 L 305.398438 223.792969 L 317.328125 227.441406 L 317.125 228.148438 L 316.890625 228.84375 L 315.484375 233.007812 L 303.726562 228.84375 "/><path style=" stroke:none;fill-rule:nonzero;fill:#36b7f8;fill-opacity:1;" d="M 305.898438 222.019531 C 306.371094 220.3125 306.914062 218.621094 307.269531 216.882812 L 319.390625 219.828125 C 318.992188 221.742188 318.402344 223.609375 317.882812 225.492188 L 305.898438 222.019531 "/><path style=" stroke:none;fill-rule:nonzero;fill:#36b7f8;fill-opacity:1;" d="M 307.683594 215.089844 L 308.28125 212.496094 L 308.742188 209.875 L 321.015625 212.105469 L 320.5 214.992188 L 319.847656 217.851562 L 307.683594 215.089844 "/><path style=" stroke:none;fill-rule:nonzero;fill:#0150ac;fill-opacity:1;" d="M 74.792969 237.851562 C 75.535156 239.460938 76.203125 241.105469 77.050781 242.664062 L 65.886719 248.234375 C 64.960938 246.515625 64.214844 244.707031 63.398438 242.933594 L 74.792969 237.851562 "/><path style=" stroke:none;fill-rule:nonzero;fill:#0150ac;fill-opacity:1;" d="M 77.890625 244.304688 C 78.296875 245.089844 78.691406 245.886719 79.105469 246.667969 L 80.433594 248.976562 L 69.613281 255.191406 L 68.152344 252.648438 C 67.691406 251.785156 67.261719 250.910156 66.8125 250.042969 L 77.890625 244.304688 "/><path style=" stroke:none;fill-rule:nonzero;fill:#0150ac;fill-opacity:1;" d="M 81.347656 250.574219 L 82.011719 251.730469 L 82.730469 252.847656 L 84.164062 255.089844 L 73.722656 261.917969 L 72.144531 259.453125 L 71.355469 258.214844 L 70.621094 256.945312 L 81.347656 250.574219 "/><path style=" stroke:none;fill-rule:nonzero;fill:#0150ac;fill-opacity:1;" d="M 85.15625 256.640625 L 88.234375 260.984375 L 78.203125 268.40625 L 74.816406 263.628906 L 85.15625 256.640625 "/><path style=" stroke:none;fill-rule:nonzero;fill:#60e6ff;fill-opacity:1;" d="M 64.148438 187.671875 L 64.28125 192.996094 L 51.820312 193.527344 L 51.675781 187.671875 L 64.148438 187.671875 "/><path style=" stroke:none;fill-rule:nonzero;fill:#60e6ff;fill-opacity:1;" d="M 64.371094 194.839844 L 64.773438 200.152344 L 52.363281 201.402344 L 51.917969 195.554688 L 64.371094 194.839844 "/><path style=" stroke:none;fill-rule:nonzero;fill:#60e6ff;fill-opacity:1;" d="M 65 201.980469 L 65.335938 204.621094 C 65.457031 205.5 65.527344 206.386719 65.707031 207.257812 L 53.386719 209.222656 C 53.195312 208.265625 53.113281 207.289062 52.976562 206.320312 L 52.609375 203.414062 L 65 201.980469 "/><path style=" stroke:none;fill-rule:nonzero;fill:#60e6ff;fill-opacity:1;" d="M 66.03125 209.070312 C 66.355469 210.816406 66.609375 212.574219 67.050781 214.292969 L 54.871094 216.972656 C 54.386719 215.078125 54.097656 213.144531 53.746094 211.21875 L 66.03125 209.070312 "/><path style=" stroke:none;fill-rule:nonzero;fill:#0150ac;fill-opacity:1;" d="M 89.34375 262.453125 L 90.988281 264.546875 L 91.808594 265.59375 C 92.082031 265.941406 92.351562 266.292969 92.652344 266.625 L 83.066406 274.617188 C 82.738281 274.253906 82.4375 273.867188 82.140625 273.480469 L 81.234375 272.328125 L 79.429688 270.027344 L 89.34375 262.453125 "/><path style=" stroke:none;fill-rule:nonzero;fill:#0150ac;fill-opacity:1;" d="M 93.855469 268.015625 C 95.027344 269.351562 96.148438 270.726562 97.402344 271.988281 L 88.292969 280.519531 C 86.914062 279.128906 85.675781 277.617188 84.390625 276.152344 L 93.855469 268.015625 "/><path style=" stroke:none;fill-rule:nonzero;fill:#0150ac;fill-opacity:1;" d="M 98.671875 273.320312 C 99.289062 273.957031 99.882812 274.617188 100.519531 275.238281 L 102.445312 277.074219 L 88.050781 292.203125 L 85.804688 290.054688 C 85.0625 289.332031 84.367188 288.5625 83.648438 287.820312 L 98.671875 273.320312 "/><path style=" stroke:none;fill-rule:nonzero;fill:#007ed5;fill-opacity:1;" d="M 103.777344 278.347656 C 104.101562 278.648438 104.410156 278.96875 104.746094 279.257812 L 105.75 280.128906 L 107.761719 281.871094 L 99.695312 291.398438 L 97.484375 289.480469 L 96.375 288.519531 C 96.003906 288.203125 95.664062 287.851562 95.308594 287.519531 L 103.777344 278.347656 "/><path style=" stroke:none;fill-rule:nonzero;fill:#007ed5;fill-opacity:1;" d="M 109.160156 283.074219 L 113.339844 286.363281 L 105.835938 296.34375 L 101.230469 292.71875 L 109.160156 283.074219 "/><path style=" stroke:none;fill-rule:nonzero;fill:#007ed5;fill-opacity:1;" d="M 114.824219 287.449219 L 116.992188 288.992188 C 117.722656 289.496094 118.421875 290.042969 119.183594 290.503906 L 112.265625 300.898438 C 111.429688 300.390625 110.65625 299.792969 109.855469 299.234375 L 107.472656 297.535156 L 114.824219 287.449219 "/><path style=" stroke:none;fill-rule:nonzero;fill:#007ed5;fill-opacity:1;" d="M 120.730469 291.496094 L 122.96875 292.933594 L 123.527344 293.296875 L 124.105469 293.625 L 125.257812 294.289062 L 118.953125 305.066406 L 117.683594 304.335938 L 117.050781 303.96875 L 116.433594 303.574219 L 113.96875 301.996094 L 120.730469 291.496094 "/><path style=" stroke:none;fill-rule:nonzero;fill:#007ed5;fill-opacity:1;" d="M 126.851562 295.207031 L 128.003906 295.871094 C 128.386719 296.09375 128.769531 296.320312 129.167969 296.511719 L 131.535156 297.722656 L 125.867188 308.851562 L 123.261719 307.515625 C 122.820312 307.296875 122.398438 307.054688 121.980469 306.808594 L 120.707031 306.078125 L 126.851562 295.207031 "/><path style=" stroke:none;fill-rule:nonzero;fill:#007ed5;fill-opacity:1;" d="M 133.167969 298.566406 C 133.949219 298.988281 134.765625 299.332031 135.570312 299.699219 L 137.992188 300.796875 L 132.984375 312.238281 L 130.316406 311.03125 C 129.425781 310.625 128.527344 310.238281 127.667969 309.773438 L 133.167969 298.566406 "/><path style=" stroke:none;fill-rule:nonzero;fill:#007ed5;fill-opacity:1;" d="M 139.671875 301.546875 L 144.613281 303.5 L 140.28125 315.210938 L 134.835938 313.058594 L 139.671875 301.546875 "/><path style=" stroke:none;fill-rule:nonzero;fill:#007ed5;fill-opacity:1;" d="M 146.347656 304.109375 L 148.867188 304.964844 L 150.121094 305.390625 L 150.75 305.605469 L 151.390625 305.785156 L 147.746094 317.734375 L 147.042969 317.53125 L 146.351562 317.296875 L 144.964844 316.828125 L 142.1875 315.886719 L 146.347656 304.109375 "/><path style=" stroke:none;fill-rule:nonzero;fill:#007ed5;fill-opacity:1;" d="M 153.160156 306.289062 C 154.867188 306.757812 156.554688 307.304688 158.289062 307.660156 L 155.347656 319.796875 C 153.4375 319.402344 151.574219 318.808594 149.695312 318.289062 L 153.160156 306.289062 "/><path style=" stroke:none;fill-rule:nonzero;fill:#007ed5;fill-opacity:1;" d="M 160.082031 308.074219 L 162.667969 308.671875 L 165.285156 309.136719 L 163.058594 321.425781 L 160.175781 320.910156 L 157.324219 320.257812 L 160.082031 308.074219 "/><path style=" stroke:none;fill-rule:nonzero;fill:#0150ac;fill-opacity:1;" d="M 137.355469 74.832031 C 135.75 75.578125 134.105469 76.242188 132.546875 77.097656 L 126.980469 65.914062 C 128.703125 64.984375 130.507812 64.242188 132.277344 63.421875 L 137.355469 74.832031 "/><path style=" stroke:none;fill-rule:nonzero;fill:#0150ac;fill-opacity:1;" d="M 130.910156 77.933594 C 130.125 78.34375 129.328125 78.734375 128.546875 79.152344 L 126.242188 80.484375 L 120.042969 69.644531 L 122.582031 68.183594 C 123.441406 67.722656 124.3125 67.289062 125.179688 66.839844 L 130.910156 77.933594 "/><path style=" stroke:none;fill-rule:nonzero;fill:#0150ac;fill-opacity:1;" d="M 124.652344 81.402344 L 123.496094 82.0625 L 122.378906 82.785156 L 120.140625 84.21875 L 113.320312 73.761719 L 115.785156 72.179688 L 117.015625 71.390625 L 118.285156 70.65625 L 124.652344 81.402344 "/><path style=" stroke:none;fill-rule:nonzero;fill:#0150ac;fill-opacity:1;" d="M 118.59375 85.214844 L 114.257812 88.296875 L 106.84375 78.25 L 111.617188 74.859375 L 118.59375 85.214844 "/><path style=" stroke:none;fill-rule:nonzero;fill:#60e6ff;fill-opacity:1;" d="M 187.460938 64.171875 L 182.136719 64.308594 L 181.609375 51.828125 L 187.460938 51.679688 L 187.460938 64.171875 "/><path style=" stroke:none;fill-rule:nonzero;fill:#60e6ff;fill-opacity:1;" d="M 180.296875 64.394531 L 174.996094 64.796875 L 173.75 52.371094 L 179.585938 51.925781 L 180.296875 64.394531 "/><path style=" stroke:none;fill-rule:nonzero;fill:#60e6ff;fill-opacity:1;" d="M 173.167969 65.023438 L 170.53125 65.363281 C 169.652344 65.484375 168.769531 65.554688 167.902344 65.734375 L 165.9375 53.398438 C 166.894531 53.203125 167.871094 53.117188 168.835938 52.984375 L 171.738281 52.617188 L 173.167969 65.023438 "/><path style=" stroke:none;fill-rule:nonzero;fill:#60e6ff;fill-opacity:1;" d="M 166.089844 66.058594 C 164.347656 66.382812 162.59375 66.636719 160.878906 67.082031 L 158.203125 54.878906 C 160.09375 54.398438 162.027344 54.109375 163.941406 53.753906 L 166.089844 66.058594 "/><path style=" stroke:none;fill-rule:nonzero;fill:#0150ac;fill-opacity:1;" d="M 112.789062 89.410156 L 110.699219 91.054688 L 109.652344 91.878906 C 109.300781 92.152344 108.953125 92.421875 108.625 92.71875 L 100.644531 83.121094 C 101.007812 82.792969 101.394531 82.492188 101.773438 82.191406 L 102.925781 81.285156 L 105.226562 79.476562 L 112.789062 89.410156 "/><path style=" stroke:none;fill-rule:nonzero;fill:#0150ac;fill-opacity:1;" d="M 107.230469 93.925781 C 105.902344 95.097656 104.523438 96.222656 103.269531 97.476562 L 94.75 88.355469 C 96.136719 86.976562 97.644531 85.734375 99.113281 84.449219 L 107.230469 93.925781 "/><path style=" stroke:none;fill-rule:nonzero;fill:#0150ac;fill-opacity:1;" d="M 101.9375 98.75 C 101.300781 99.367188 100.640625 99.960938 100.023438 100.597656 L 98.191406 102.527344 L 83.082031 88.113281 L 85.226562 85.863281 C 85.949219 85.117188 86.714844 84.421875 87.460938 83.699219 L 101.9375 98.75 "/><path style=" stroke:none;fill-rule:nonzero;fill:#36b7f8;fill-opacity:1;" d="M 96.917969 103.859375 C 96.617188 104.1875 96.296875 104.492188 96.011719 104.832031 L 95.140625 105.839844 L 93.398438 107.851562 L 83.886719 99.773438 L 85.804688 97.558594 L 86.761719 96.449219 C 87.078125 96.078125 87.429688 95.738281 87.761719 95.378906 L 96.917969 103.859375 "/><path style=" stroke:none;fill-rule:nonzero;fill:#36b7f8;fill-opacity:1;" d="M 92.199219 109.25 L 88.914062 113.4375 L 78.953125 105.921875 L 82.570312 101.308594 L 92.199219 109.25 "/><path style=" stroke:none;fill-rule:nonzero;fill:#36b7f8;fill-opacity:1;" d="M 87.832031 114.925781 L 86.289062 117.097656 C 85.78125 117.828125 85.238281 118.53125 84.78125 119.289062 L 74.398438 112.363281 C 74.910156 111.527344 75.503906 110.753906 76.0625 109.949219 L 77.757812 107.5625 L 87.832031 114.925781 "/><path style=" stroke:none;fill-rule:nonzero;fill:#36b7f8;fill-opacity:1;" d="M 83.789062 120.84375 L 82.351562 123.082031 L 81.992188 123.640625 L 81.664062 124.21875 L 81 125.371094 L 70.238281 119.058594 L 70.96875 117.789062 L 71.332031 117.152344 L 71.730469 116.539062 L 73.308594 114.070312 L 83.789062 120.84375 "/><path style=" stroke:none;fill-rule:nonzero;fill:#36b7f8;fill-opacity:1;" d="M 80.085938 126.96875 L 79.421875 128.121094 C 79.195312 128.507812 78.972656 128.890625 78.78125 129.289062 L 77.570312 131.65625 L 66.457031 125.980469 L 67.796875 123.375 C 68.007812 122.9375 68.253906 122.511719 68.5 122.089844 L 69.226562 120.820312 L 80.085938 126.96875 "/><path style=" stroke:none;fill-rule:nonzero;fill:#36b7f8;fill-opacity:1;" d="M 76.730469 133.300781 C 76.308594 134.078125 75.960938 134.898438 75.597656 135.703125 L 74.5 138.128906 L 63.082031 133.109375 L 64.285156 130.441406 C 64.691406 129.550781 65.074219 128.652344 65.535156 127.789062 L 76.730469 133.300781 "/><path style=" stroke:none;fill-rule:nonzero;fill:#36b7f8;fill-opacity:1;" d="M 73.753906 139.808594 L 71.804688 144.761719 L 60.105469 140.417969 L 62.253906 134.964844 L 73.753906 139.808594 "/><path style=" stroke:none;fill-rule:nonzero;fill:#36b7f8;fill-opacity:1;" d="M 71.195312 146.496094 L 70.34375 149.015625 L 69.914062 150.277344 L 69.703125 150.90625 L 69.519531 151.542969 L 57.589844 147.894531 L 57.792969 147.191406 L 58.027344 146.5 L 58.496094 145.109375 L 59.433594 142.332031 L 71.195312 146.496094 "/><path style=" stroke:none;fill-rule:nonzero;fill:#36b7f8;fill-opacity:1;" d="M 69.019531 153.316406 C 68.550781 155.023438 68.003906 156.714844 67.648438 158.453125 L 55.527344 155.511719 C 55.925781 153.597656 56.515625 151.730469 57.035156 149.847656 L 69.019531 153.316406 "/><path style=" stroke:none;fill-rule:nonzero;fill:#36b7f8;fill-opacity:1;" d="M 67.234375 160.25 L 66.640625 162.84375 L 66.175781 165.464844 L 53.902344 163.230469 L 54.421875 160.347656 L 55.074219 157.488281 L 67.234375 160.25 "/><path style=" stroke:none;fill-rule:nonzero;fill:#0150ac;fill-opacity:1;" d="M 300.128906 137.488281 C 299.382812 135.882812 298.714844 134.234375 297.867188 132.675781 L 309.03125 127.101562 C 309.957031 128.824219 310.703125 130.632812 311.523438 132.40625 L 300.128906 137.488281 "/><path style=" stroke:none;fill-rule:nonzero;fill:#0150ac;fill-opacity:1;" d="M 297.027344 131.035156 C 296.625 130.246094 296.230469 129.453125 295.8125 128.667969 L 294.488281 126.363281 L 305.308594 120.152344 L 306.765625 122.691406 C 307.222656 123.554688 307.660156 124.429688 308.105469 125.296875 L 297.027344 131.035156 "/><path style=" stroke:none;fill-rule:nonzero;fill:#0150ac;fill-opacity:1;" d="M 293.570312 124.765625 L 292.910156 123.609375 L 292.191406 122.492188 L 290.753906 120.253906 L 301.199219 113.421875 L 302.777344 115.890625 L 303.5625 117.121094 L 304.296875 118.390625 L 293.570312 124.765625 "/><path style=" stroke:none;fill-rule:nonzero;fill:#0150ac;fill-opacity:1;" d="M 289.761719 118.695312 L 286.683594 114.359375 L 296.714844 106.929688 L 300.101562 111.710938 L 289.761719 118.695312 "/><path style=" stroke:none;fill-rule:nonzero;fill:#60e6ff;fill-opacity:1;" d="M 310.773438 187.671875 L 310.636719 182.339844 L 323.097656 181.8125 L 323.246094 187.671875 L 310.773438 187.671875 "/><path style=" stroke:none;fill-rule:nonzero;fill:#60e6ff;fill-opacity:1;" d="M 310.546875 180.496094 L 310.144531 175.183594 L 322.558594 173.941406 L 323 179.785156 L 310.546875 180.496094 "/><path style=" stroke:none;fill-rule:nonzero;fill:#60e6ff;fill-opacity:1;" d="M 309.917969 173.355469 L 309.585938 170.714844 C 309.464844 169.835938 309.390625 168.949219 309.210938 168.082031 L 321.527344 166.117188 C 321.722656 167.078125 321.808594 168.050781 321.941406 169.015625 L 322.3125 171.925781 L 309.917969 173.355469 "/><path style=" stroke:none;fill-rule:nonzero;fill:#60e6ff;fill-opacity:1;" d="M 308.886719 166.265625 C 308.5625 164.523438 308.308594 162.765625 307.867188 161.046875 L 320.046875 158.367188 C 320.527344 160.261719 320.820312 162.199219 321.175781 164.117188 L 308.886719 166.265625 "/><path style=" stroke:none;fill-rule:nonzero;fill:#0150ac;fill-opacity:1;" d="M 285.574219 112.886719 L 283.929688 110.796875 L 283.109375 109.746094 C 282.835938 109.394531 282.566406 109.042969 282.265625 108.714844 L 291.855469 100.722656 C 292.179688 101.085938 292.480469 101.472656 292.78125 101.859375 L 293.683594 103.007812 L 295.492188 105.316406 L 285.574219 112.886719 "/><path style=" stroke:none;fill-rule:nonzero;fill:#0150ac;fill-opacity:1;" d="M 281.058594 107.324219 C 279.894531 105.988281 278.769531 104.609375 277.519531 103.355469 L 286.625 94.824219 C 288.003906 96.207031 289.242188 97.71875 290.527344 99.1875 L 281.058594 107.324219 "/><path style=" stroke:none;fill-rule:nonzero;fill:#0150ac;fill-opacity:1;" d="M 276.246094 102.019531 C 275.628906 101.382812 275.035156 100.71875 274.402344 100.101562 L 272.472656 98.265625 L 286.867188 83.132812 L 289.113281 85.28125 C 289.855469 86.003906 290.554688 86.773438 291.273438 87.519531 L 276.246094 102.019531 "/><path style=" stroke:none;fill-rule:nonzero;fill:#007ed5;fill-opacity:1;" d="M 271.144531 96.992188 C 270.820312 96.691406 270.511719 96.367188 270.175781 96.082031 L 269.164062 95.210938 L 267.160156 93.46875 L 275.226562 83.941406 L 277.4375 85.863281 L 278.542969 86.820312 C 278.914062 87.136719 279.253906 87.488281 279.609375 87.824219 L 271.144531 96.992188 "/><path style=" stroke:none;fill-rule:nonzero;fill:#007ed5;fill-opacity:1;" d="M 265.761719 92.265625 L 261.582031 88.972656 L 269.085938 79 L 273.6875 82.621094 L 265.761719 92.265625 "/><path style=" stroke:none;fill-rule:nonzero;fill:#007ed5;fill-opacity:1;" d="M 260.089844 87.890625 L 257.925781 86.347656 C 257.199219 85.839844 256.496094 85.292969 255.738281 84.835938 L 262.65625 74.441406 C 263.488281 74.949219 264.261719 75.546875 265.0625 76.105469 L 267.449219 77.804688 L 260.089844 87.890625 "/><path style=" stroke:none;fill-rule:nonzero;fill:#007ed5;fill-opacity:1;" d="M 254.1875 83.84375 L 251.949219 82.402344 L 251.394531 82.042969 L 250.816406 81.710938 L 249.664062 81.050781 L 255.964844 70.273438 L 257.234375 71.003906 L 257.867188 71.367188 L 258.484375 71.761719 L 260.949219 73.34375 L 254.1875 83.84375 "/><path style=" stroke:none;fill-rule:nonzero;fill:#007ed5;fill-opacity:1;" d="M 248.066406 80.132812 L 246.917969 79.46875 C 246.535156 79.246094 246.152344 79.019531 245.753906 78.828125 L 243.386719 77.617188 L 249.054688 66.488281 L 251.65625 67.824219 C 252.097656 68.039062 252.519531 68.285156 252.941406 68.53125 L 254.210938 69.261719 L 248.066406 80.132812 "/><path style=" stroke:none;fill-rule:nonzero;fill:#007ed5;fill-opacity:1;" d="M 241.75 76.773438 C 240.96875 76.351562 240.152344 76.003906 239.347656 75.640625 L 236.929688 74.542969 L 241.9375 63.101562 L 244.605469 64.3125 C 245.492188 64.714844 246.390625 65.101562 247.25 65.5625 L 241.75 76.773438 "/><path style=" stroke:none;fill-rule:nonzero;fill:#007ed5;fill-opacity:1;" d="M 235.25 73.789062 L 230.304688 71.839844 L 234.640625 60.128906 L 240.085938 62.277344 L 235.25 73.789062 "/><path style=" stroke:none;fill-rule:nonzero;fill:#007ed5;fill-opacity:1;" d="M 228.574219 71.226562 L 226.054688 70.378906 L 224.167969 69.734375 L 223.53125 69.550781 L 227.171875 57.609375 L 227.875 57.808594 L 228.570312 58.042969 L 229.957031 58.511719 L 232.730469 59.453125 L 228.574219 71.226562 "/><path style=" stroke:none;fill-rule:nonzero;fill:#007ed5;fill-opacity:1;" d="M 221.761719 69.050781 C 220.054688 68.582031 218.367188 68.035156 216.628906 67.679688 L 219.570312 55.539062 C 221.480469 55.9375 223.34375 56.53125 225.226562 57.050781 L 221.761719 69.050781 "/><path style=" stroke:none;fill-rule:nonzero;fill:#007ed5;fill-opacity:1;" d="M 214.835938 67.265625 L 212.25 66.667969 L 209.632812 66.203125 L 211.863281 53.914062 L 214.742188 54.429688 L 217.59375 55.082031 L 214.835938 67.265625 "/><path style=" stroke:none;fill-rule:nonzero;fill:#60e6ff;fill-opacity:1;" d="M 222.484375 262.6875 C 223.179688 262.390625 223.851562 262.039062 224.523438 261.691406 L 226.546875 260.65625 L 232.101562 271.011719 L 229.792969 272.195312 C 229.027344 272.59375 228.257812 272.992188 227.464844 273.335938 L 222.484375 262.6875 "/><path style=" stroke:none;fill-rule:nonzero;fill:#60e6ff;fill-opacity:1;" d="M 227.914062 259.886719 L 229.882812 258.753906 C 230.214844 258.570312 230.535156 258.371094 230.851562 258.160156 L 231.804688 257.546875 L 238.113281 267.464844 L 237.019531 268.164062 C 236.65625 268.402344 236.292969 268.628906 235.914062 268.839844 L 233.667969 270.136719 L 227.914062 259.886719 "/><path style=" stroke:none;fill-rule:nonzero;fill:#60e6ff;fill-opacity:1;" d="M 233.128906 256.699219 C 233.777344 256.308594 234.375 255.839844 234.996094 255.410156 L 236.847656 254.09375 L 243.867188 263.515625 L 241.753906 265.019531 C 241.046875 265.511719 240.359375 266.039062 239.621094 266.496094 L 233.128906 256.699219 "/><path style=" stroke:none;fill-rule:nonzero;fill:#60e6ff;fill-opacity:1;" d="M 238.082031 253.121094 L 239.871094 251.71875 C 240.457031 251.238281 241.015625 250.730469 241.589844 250.238281 L 249.28125 259.121094 C 248.628906 259.683594 247.984375 260.257812 247.316406 260.808594 L 245.28125 262.414062 L 238.082031 253.121094 "/><path style=" stroke:none;fill-rule:nonzero;fill:#60e6ff;fill-opacity:1;" d="M 242.78125 249.207031 C 243.355469 248.710938 243.882812 248.167969 244.433594 247.652344 C 244.980469 247.125 245.539062 246.613281 246.070312 246.078125 L 254.394531 254.367188 C 253.785156 254.980469 253.148438 255.566406 252.527344 256.167969 C 251.898438 256.757812 251.289062 257.371094 250.640625 257.941406 L 242.78125 249.207031 "/><path style=" stroke:none;fill-rule:nonzero;fill:#60e6ff;fill-opacity:1;" d="M 247.15625 244.9375 L 248.722656 243.289062 L 250.207031 241.570312 L 259.113281 249.226562 L 257.417969 251.1875 L 255.632812 253.066406 L 247.15625 244.9375 "/><path style=" stroke:none;fill-rule:nonzero;fill:#60e6ff;fill-opacity:1;" d="M 251.238281 240.378906 L 252.640625 238.59375 L 253.34375 237.699219 C 253.578125 237.402344 253.8125 237.105469 254.023438 236.789062 L 263.46875 243.773438 C 263.222656 244.128906 262.960938 244.472656 262.691406 244.808594 L 261.890625 245.832031 L 260.285156 247.867188 L 251.238281 240.378906 "/><path style=" stroke:none;fill-rule:nonzero;fill:#60e6ff;fill-opacity:1;" d="M 254.933594 235.507812 C 255.363281 234.886719 255.828125 234.285156 256.234375 233.644531 L 257.460938 231.730469 L 267.390625 237.996094 L 265.992188 240.183594 C 265.523438 240.90625 265 241.597656 264.511719 242.308594 L 254.933594 235.507812 "/><path style=" stroke:none;fill-rule:nonzero;fill:#0150ac;fill-opacity:1;" d="M 258.296875 230.398438 L 259.429688 228.429688 C 259.804688 227.769531 260.199219 227.125 260.527344 226.441406 L 270.894531 231.957031 C 270.511719 232.734375 270.066406 233.476562 269.640625 234.226562 L 268.347656 236.476562 L 258.296875 230.398438 "/><path style=" stroke:none;fill-rule:nonzero;fill:#0150ac;fill-opacity:1;" d="M 261.242188 225.042969 C 261.960938 223.707031 262.558594 222.316406 263.183594 220.933594 L 273.933594 225.664062 C 273.21875 227.238281 272.527344 228.828125 271.710938 230.355469 L 261.242188 225.042969 "/><path style=" stroke:none;fill-rule:nonzero;fill:#0150ac;fill-opacity:1;" d="M 263.8125 219.492188 L 265.0625 216.320312 C 265.199219 215.96875 265.304688 215.605469 265.433594 215.25 L 276.503906 219.160156 C 276.359375 219.570312 276.234375 219.984375 276.074219 220.386719 L 275.601562 221.597656 L 274.648438 224.011719 L 263.8125 219.492188 "/><path style=" stroke:none;fill-rule:nonzero;fill:#0150ac;fill-opacity:1;" d="M 265.9375 213.757812 C 266.453125 212.335938 266.828125 210.863281 267.25 209.410156 L 278.578125 212.488281 C 278.101562 214.152344 277.664062 215.828125 277.078125 217.460938 L 265.9375 213.757812 "/><path style=" stroke:none;fill-rule:nonzero;fill:#0150ac;fill-opacity:1;" d="M 267.65625 207.890625 L 268.164062 205.675781 L 268.421875 204.566406 C 268.507812 204.199219 268.558594 203.824219 268.628906 203.449219 L 280.15625 205.679688 C 280.074219 206.105469 280.011719 206.535156 279.914062 206.953125 L 279.625 208.21875 L 279.042969 210.75 L 267.65625 207.890625 "/><path style=" stroke:none;fill-rule:nonzero;fill:#0150ac;fill-opacity:1;" d="M 215.03125 272.65625 C 215.46875 274.027344 216.921875 274.769531 218.28125 274.308594 C 218.957031 274.089844 219.457031 273.570312 219.71875 272.960938 C 219.984375 272.347656 220.011719 271.636719 219.75 270.96875 C 219.324219 269.882812 218.296875 269.226562 217.265625 269.277344 L 214.988281 263.039062 C 226.054688 258.941406 236.234375 252.410156 244.519531 243.96875 C 252.777344 235.519531 259.261719 225.292969 263.09375 214.109375 L 261.617188 213.59375 C 257.859375 224.554688 251.5 234.585938 243.402344 242.867188 C 235.28125 251.144531 225.296875 257.546875 214.449219 261.570312 L 213.824219 261.777344 L 213.191406 261.992188 L 215.878906 269.746094 C 215.054688 270.378906 214.675781 271.546875 215.03125 272.65625 "/><path style=" stroke:none;fill-rule:nonzero;fill:#007ed5;fill-opacity:1;" d="M 127.058594 244.199219 L 128.625 245.847656 C 128.882812 246.125 129.152344 246.390625 129.433594 246.648438 L 130.253906 247.433594 L 122.128906 255.914062 L 121.191406 255.019531 C 120.875 254.726562 120.566406 254.421875 120.273438 254.105469 L 118.484375 252.226562 L 127.058594 244.199219 "/><path style=" stroke:none;fill-rule:nonzero;fill:#007ed5;fill-opacity:1;" d="M 131.390625 248.519531 C 131.925781 249.054688 132.519531 249.527344 133.085938 250.03125 L 134.800781 251.519531 L 127.320312 260.578125 L 125.359375 258.882812 C 124.714844 258.308594 124.039062 257.765625 123.425781 257.15625 L 131.390625 248.519531 "/><path style=" stroke:none;fill-rule:nonzero;fill:#007ed5;fill-opacity:1;" d="M 136.035156 252.496094 L 137.820312 253.898438 C 138.421875 254.355469 139.050781 254.78125 139.664062 255.226562 L 132.867188 264.8125 C 132.167969 264.308594 131.453125 263.816406 130.765625 263.296875 L 128.726562 261.695312 L 136.035156 252.496094 "/><path style=" stroke:none;fill-rule:nonzero;fill:#007ed5;fill-opacity:1;" d="M 140.945312 256.136719 C 141.5625 256.574219 142.210938 256.960938 142.84375 257.375 C 143.484375 257.78125 144.113281 258.203125 144.761719 258.597656 L 138.691406 268.65625 C 137.953125 268.210938 137.234375 267.730469 136.503906 267.269531 C 135.777344 266.792969 135.039062 266.347656 134.332031 265.851562 L 140.945312 256.136719 "/><path style=" stroke:none;fill-rule:nonzero;fill:#007ed5;fill-opacity:1;" d="M 146.121094 259.378906 L 148.09375 260.511719 L 150.113281 261.546875 L 144.800781 272.03125 L 142.492188 270.847656 L 140.246094 269.554688 L 146.121094 259.378906 "/><path style=" stroke:none;fill-rule:nonzero;fill:#007ed5;fill-opacity:1;" d="M 151.511719 262.265625 L 153.574219 263.207031 C 154.269531 263.507812 154.945312 263.847656 155.652344 264.121094 L 151.132812 274.972656 C 150.328125 274.660156 149.550781 274.277344 148.757812 273.925781 C 147.972656 273.566406 147.179688 273.21875 146.398438 272.851562 L 151.511719 262.265625 "/><path style=" stroke:none;fill-rule:nonzero;fill:#007ed5;fill-opacity:1;" d="M 157.113281 264.703125 C 157.820312 264.976562 158.519531 265.265625 159.226562 265.523438 L 161.375 266.25 L 157.675781 277.410156 L 155.21875 276.574219 C 154.40625 276.28125 153.605469 275.949219 152.800781 275.636719 L 157.113281 264.703125 "/><path style=" stroke:none;fill-rule:nonzero;fill:#007ed5;fill-opacity:1;" d="M 162.863281 266.757812 C 164.324219 267.160156 165.769531 267.605469 167.234375 267.976562 L 164.371094 279.378906 C 162.695312 278.957031 161.042969 278.453125 159.378906 277.980469 L 162.863281 266.757812 "/><path style=" stroke:none;fill-rule:nonzero;fill:#007ed5;fill-opacity:1;" d="M 168.765625 268.328125 C 169.503906 268.496094 170.238281 268.679688 170.980469 268.832031 L 173.214844 269.230469 L 171.203125 280.816406 L 168.648438 280.359375 C 167.804688 280.183594 166.964844 279.972656 166.121094 279.785156 L 168.765625 268.328125 "/><path style=" stroke:none;fill-rule:nonzero;fill:#007ed5;fill-opacity:1;" d="M 174.761719 269.511719 C 176.257812 269.703125 177.757812 269.90625 179.261719 270.074219 L 178.113281 281.773438 C 176.394531 281.585938 174.683594 281.355469 172.972656 281.128906 L 174.761719 269.511719 "/><path style=" stroke:none;fill-rule:nonzero;fill:#007ed5;fill-opacity:1;" d="M 180.828125 270.191406 L 183.09375 270.367188 L 185.363281 270.425781 L 185.070312 282.179688 C 184.207031 282.15625 183.34375 282.144531 182.484375 282.105469 L 179.902344 281.914062 L 180.828125 270.191406 "/><path style=" stroke:none;fill-rule:nonzero;fill:#007ed5;fill-opacity:1;" d="M 186.9375 270.46875 C 187.316406 270.488281 187.691406 270.480469 188.070312 270.464844 L 189.207031 270.4375 L 191.476562 270.378906 L 192.039062 282.121094 L 189.449219 282.1875 L 188.15625 282.21875 C 187.722656 282.238281 187.296875 282.242188 186.863281 282.222656 L 186.9375 270.46875 "/><path style=" stroke:none;fill-rule:nonzero;fill:#007ed5;fill-opacity:1;" d="M 193.046875 270.273438 C 194.554688 270.15625 196.066406 270.070312 197.5625 269.84375 L 198.984375 281.515625 C 197.273438 281.765625 195.546875 281.871094 193.828125 282 L 193.046875 270.273438 "/><path style=" stroke:none;fill-rule:nonzero;fill:#0150ac;fill-opacity:1;" d="M 115.289062 240.183594 C 114.128906 241.023438 113.828125 242.671875 114.730469 243.785156 C 115.617188 244.910156 117.230469 245.082031 118.339844 244.164062 C 119.238281 243.425781 119.554688 242.230469 119.210938 241.25 L 124.425781 237.148438 C 128.074219 241.792969 132.210938 246.070312 136.792969 249.804688 C 141.371094 253.539062 146.355469 256.769531 151.628906 259.425781 C 162.164062 264.777344 173.914062 267.597656 185.726562 267.855469 L 185.757812 266.289062 C 174.171875 266.035156 162.660156 263.269531 152.332031 258.023438 C 147.160156 255.421875 142.277344 252.253906 137.78125 248.59375 C 133.289062 244.933594 129.238281 240.738281 125.65625 236.183594 L 124.835938 235.136719 L 118.304688 240.097656 C 117.859375 239.8125 117.351562 239.660156 116.828125 239.667969 C 116.300781 239.675781 115.761719 239.84375 115.289062 240.183594 "/><path style=" stroke:none;fill-rule:nonzero;fill:#60e6ff;fill-opacity:1;" d="M 115.089844 147.605469 C 114.699219 148.253906 114.378906 148.941406 114.027344 149.613281 L 112.992188 151.632812 L 102.429688 146.511719 L 103.605469 144.199219 C 104.007812 143.433594 104.378906 142.648438 104.824219 141.90625 L 115.089844 147.605469 "/><path style=" stroke:none;fill-rule:nonzero;fill:#60e6ff;fill-opacity:1;" d="M 112.339844 153.0625 L 111.402344 155.136719 C 111.097656 155.824219 110.839844 156.542969 110.558594 157.242188 L 99.640625 152.921875 C 99.964844 152.121094 100.261719 151.304688 100.609375 150.511719 L 101.675781 148.144531 L 112.339844 153.0625 "/><path style=" stroke:none;fill-rule:nonzero;fill:#007ed5;fill-opacity:1;" d="M 109.980469 158.707031 C 109.835938 159.058594 109.710938 159.414062 109.59375 159.773438 L 109.230469 160.851562 L 108.503906 163 L 97.296875 159.507812 L 98.125 157.042969 L 98.539062 155.8125 C 98.675781 155.402344 98.820312 154.992188 98.984375 154.59375 L 109.980469 158.707031 "/><path style=" stroke:none;fill-rule:nonzero;fill:#007ed5;fill-opacity:1;" d="M 108.070312 164.515625 L 107.449219 166.703125 C 107.253906 167.433594 107.105469 168.175781 106.925781 168.910156 L 95.492188 166.257812 C 95.695312 165.417969 95.871094 164.566406 96.09375 163.734375 L 96.796875 161.234375 L 108.070312 164.515625 "/><path style=" stroke:none;fill-rule:nonzero;fill:#007ed5;fill-opacity:1;" d="M 106.574219 170.445312 L 106.449219 171 L 106.351562 171.558594 L 106.148438 172.675781 L 105.75 174.914062 L 94.148438 173.117188 L 94.601562 170.5625 L 94.832031 169.28125 L 94.945312 168.644531 L 95.089844 168.011719 L 106.574219 170.445312 "/><path style=" stroke:none;fill-rule:nonzero;fill:#60e6ff;fill-opacity:1;" d="M 105.542969 176.476562 L 105.257812 178.730469 C 105.203125 179.105469 105.171875 179.480469 105.148438 179.863281 L 105.0625 180.992188 L 93.363281 180.058594 L 93.460938 178.765625 C 93.492188 178.335938 93.523438 177.902344 93.585938 177.472656 L 93.910156 174.898438 L 105.542969 176.476562 "/><path style=" stroke:none;fill-rule:nonzero;fill:#60e6ff;fill-opacity:1;" d="M 104.945312 182.566406 C 104.867188 183.316406 104.863281 184.078125 104.84375 184.835938 L 104.785156 187.109375 L 93.046875 187.03125 L 93.113281 184.441406 C 93.136719 183.574219 93.148438 182.710938 93.226562 181.851562 L 104.945312 182.566406 "/><path style=" stroke:none;fill-rule:nonzero;fill:#60e6ff;fill-opacity:1;" d="M 104.796875 188.683594 L 104.855469 190.960938 C 104.867188 191.335938 104.867188 191.714844 104.890625 192.09375 L 104.976562 193.226562 L 93.265625 194.003906 L 93.167969 192.710938 C 93.140625 192.28125 93.140625 191.847656 93.125 191.417969 L 93.058594 188.824219 L 104.796875 188.683594 "/><path style=" stroke:none;fill-rule:nonzero;fill:#60e6ff;fill-opacity:1;" d="M 105.097656 194.796875 L 105.183594 195.933594 C 105.207031 196.308594 105.269531 196.683594 105.316406 197.0625 L 105.601562 199.316406 L 93.976562 200.953125 L 93.652344 198.378906 C 93.601562 197.949219 93.53125 197.523438 93.5 197.089844 L 93.402344 195.796875 L 105.097656 194.796875 "/><path style=" stroke:none;fill-rule:nonzero;fill:#60e6ff;fill-opacity:1;" d="M 105.828125 200.871094 L 106.230469 203.109375 L 106.425781 204.226562 C 106.5 204.597656 106.59375 204.964844 106.675781 205.335938 L 95.207031 207.832031 C 95.109375 207.410156 95.003906 206.988281 94.921875 206.566406 L 94.695312 205.289062 L 94.238281 202.730469 L 105.828125 200.871094 "/><path style=" stroke:none;fill-rule:nonzero;fill:#60e6ff;fill-opacity:1;" d="M 107.03125 206.867188 C 107.335938 208.355469 107.789062 209.800781 108.195312 211.261719 L 96.941406 214.601562 C 96.476562 212.9375 95.964844 211.28125 95.609375 209.585938 L 107.03125 206.867188 "/><path style=" stroke:none;fill-rule:nonzero;fill:#60e6ff;fill-opacity:1;" d="M 108.648438 212.765625 L 109.375 214.917969 L 109.738281 215.992188 C 109.863281 216.355469 110.011719 216.699219 110.148438 217.054688 L 99.171875 221.230469 C 99.019531 220.824219 98.847656 220.421875 98.707031 220.015625 L 98.289062 218.785156 L 97.460938 216.324219 L 108.648438 212.765625 "/><path style=" stroke:none;fill-rule:nonzero;fill:#60e6ff;fill-opacity:1;" d="M 110.722656 218.515625 C 111.246094 219.941406 111.914062 221.304688 112.527344 222.6875 L 101.890625 227.667969 C 101.1875 226.085938 100.433594 224.527344 99.832031 222.902344 L 110.722656 218.515625 "/><path style=" stroke:none;fill-rule:nonzero;fill:#0150ac;fill-opacity:1;" d="M 115.289062 135.152344 C 114.128906 134.300781 112.519531 134.558594 111.691406 135.726562 C 111.265625 136.300781 111.175781 137.019531 111.316406 137.664062 C 111.460938 138.3125 111.855469 138.90625 112.460938 139.292969 C 113.441406 139.925781 114.65625 139.851562 115.464844 139.207031 L 120.964844 142.917969 C 114.394531 152.746094 109.980469 164 108.242188 175.699219 C 106.519531 187.398438 107.359375 199.496094 110.746094 210.8125 L 112.246094 210.359375 C 110.589844 204.808594 109.546875 199.078125 109.136719 193.292969 C 108.730469 187.503906 108.945312 181.664062 109.789062 175.929688 C 111.496094 164.460938 115.824219 153.429688 122.261719 143.792969 C 122.378906 143.605469 122.515625 143.429688 122.644531 143.246094 L 123.027344 142.707031 L 116.304688 138.007812 C 116.605469 137.015625 116.230469 135.84375 115.289062 135.152344 "/><path style=" stroke:none;fill-rule:nonzero;fill:#007ed5;fill-opacity:1;" d="M 203.152344 106.367188 C 201.660156 106.117188 200.179688 105.789062 198.671875 105.636719 L 200.25 93.988281 C 201.972656 94.167969 203.664062 94.527344 205.367188 94.820312 L 203.152344 106.367188 "/><path style=" stroke:none;fill-rule:nonzero;fill:#007ed5;fill-opacity:1;" d="M 197.113281 105.441406 L 195.992188 105.296875 L 194.859375 105.207031 L 192.59375 105.035156 L 193.3125 93.300781 L 195.894531 93.496094 L 197.1875 93.597656 L 198.472656 93.761719 L 197.113281 105.441406 "/><path style=" stroke:none;fill-rule:nonzero;fill:#007ed5;fill-opacity:1;" d="M 191.023438 104.945312 L 188.753906 104.890625 L 187.617188 104.859375 C 187.242188 104.855469 186.863281 104.878906 186.480469 104.882812 L 186.347656 93.125 C 186.777344 93.121094 187.210938 93.097656 187.640625 93.105469 L 188.933594 93.136719 L 191.523438 93.203125 L 191.023438 104.945312 "/><path style=" stroke:none;fill-rule:nonzero;fill:#007ed5;fill-opacity:1;" d="M 184.914062 104.925781 L 183.777344 104.949219 L 183.207031 104.964844 L 182.640625 105.007812 L 180.378906 105.179688 L 179.386719 93.464844 L 181.96875 93.269531 L 182.613281 93.226562 L 184.554688 93.171875 L 184.914062 104.925781 "/><path style=" stroke:none;fill-rule:nonzero;fill:#007ed5;fill-opacity:1;" d="M 178.8125 105.308594 L 176.558594 105.597656 L 175.4375 105.738281 L 174.871094 105.8125 L 174.3125 105.910156 L 172.460938 94.300781 L 173.101562 94.1875 L 173.742188 94.105469 L 175.027344 93.941406 L 177.601562 93.617188 L 178.8125 105.308594 "/><path style=" stroke:none;fill-rule:nonzero;fill:#007ed5;fill-opacity:1;" d="M 172.765625 106.1875 C 172.023438 106.328125 171.273438 106.4375 170.535156 106.601562 L 168.324219 107.113281 L 165.617188 95.671875 L 168.144531 95.089844 C 168.988281 94.910156 169.84375 94.773438 170.695312 94.617188 L 172.765625 106.1875 "/><path style=" stroke:none;fill-rule:nonzero;fill:#007ed5;fill-opacity:1;" d="M 166.792969 107.464844 C 165.339844 107.890625 163.878906 108.269531 162.433594 108.726562 L 158.886719 97.519531 C 160.535156 97 162.207031 96.558594 163.867188 96.078125 L 166.792969 107.464844 "/><path style=" stroke:none;fill-rule:nonzero;fill:#007ed5;fill-opacity:1;" d="M 160.949219 109.230469 C 160.234375 109.480469 159.507812 109.707031 158.800781 109.972656 L 156.691406 110.804688 L 152.320312 99.894531 L 154.734375 98.945312 C 155.542969 98.640625 156.367188 98.378906 157.183594 98.097656 L 160.949219 109.230469 "/><path style=" stroke:none;fill-rule:nonzero;fill:#007ed5;fill-opacity:1;" d="M 155.230469 111.382812 L 153.164062 112.320312 L 151.613281 113.019531 L 151.109375 113.28125 L 145.9375 102.726562 L 146.515625 102.429688 L 147.105469 102.164062 L 148.289062 101.628906 L 150.652344 100.558594 L 155.230469 111.382812 "/><path style=" stroke:none;fill-rule:nonzero;fill:#007ed5;fill-opacity:1;" d="M 149.707031 114 C 149.039062 114.351562 148.355469 114.671875 147.699219 115.050781 L 145.730469 116.1875 L 139.796875 106.042969 L 142.046875 104.75 C 142.792969 104.316406 143.574219 103.949219 144.339844 103.542969 L 149.707031 114 "/><path style=" stroke:none;fill-rule:nonzero;fill:#007ed5;fill-opacity:1;" d="M 144.375 116.980469 L 142.464844 118.207031 C 141.828125 118.617188 141.183594 119.015625 140.578125 119.464844 L 133.910156 109.789062 C 134.605469 109.273438 135.339844 108.820312 136.066406 108.351562 L 138.25 106.953125 L 144.375 116.980469 "/><path style=" stroke:none;fill-rule:nonzero;fill:#007ed5;fill-opacity:1;" d="M 139.292969 120.378906 C 138.039062 121.230469 136.871094 122.191406 135.679688 123.125 L 128.320312 113.964844 C 129.679688 112.902344 131.019531 111.804688 132.449219 110.832031 L 139.292969 120.378906 "/><path style=" stroke:none;fill-rule:nonzero;fill:#007ed5;fill-opacity:1;" d="M 134.457031 124.121094 L 132.746094 125.609375 L 131.882812 126.351562 L 131.0625 127.132812 L 123.050781 118.542969 L 123.992188 117.648438 L 124.96875 116.796875 L 126.929688 115.097656 L 134.457031 124.121094 "/><path style=" stroke:none;fill-rule:nonzero;fill:#0150ac;fill-opacity:1;" d="M 215.03125 102.683594 C 215.480469 101.320312 214.753906 99.816406 213.371094 99.445312 C 211.992188 99.054688 210.585938 99.863281 210.226562 101.257812 C 209.933594 102.386719 210.378906 103.539062 211.230469 104.128906 L 209.417969 110.515625 C 203.746094 108.902344 197.890625 107.914062 191.992188 107.578125 C 186.089844 107.226562 180.152344 107.5625 174.332031 108.53125 C 168.507812 109.496094 162.800781 111.109375 157.332031 113.328125 L 156.300781 113.734375 L 155.292969 114.191406 L 153.277344 115.101562 C 152.59375 115.386719 151.957031 115.761719 151.292969 116.089844 L 149.324219 117.097656 L 147.402344 118.203125 L 146.445312 118.75 C 146.121094 118.933594 145.804688 119.121094 145.496094 119.328125 L 143.632812 120.523438 L 142.699219 121.117188 L 141.796875 121.765625 L 142.691406 123.050781 L 143.574219 122.421875 L 144.488281 121.835938 L 146.316406 120.660156 C 146.621094 120.460938 146.929688 120.273438 147.246094 120.097656 L 148.1875 119.558594 L 150.070312 118.476562 L 152.003906 117.484375 C 152.648438 117.164062 153.277344 116.800781 153.941406 116.519531 L 155.921875 115.625 L 156.910156 115.179688 L 157.917969 114.78125 C 163.28125 112.605469 168.878906 111.027344 174.585938 110.074219 C 180.292969 109.128906 186.117188 108.800781 191.90625 109.140625 C 197.691406 109.472656 203.429688 110.441406 208.988281 112.023438 L 209.628906 112.207031 L 210.265625 112.386719 L 212.640625 104.53125 C 213.167969 104.496094 213.671875 104.316406 214.089844 104.003906 C 214.511719 103.691406 214.851562 103.238281 215.03125 102.683594 "/><path style=" stroke:none;fill-rule:nonzero;fill:#36b7f8;fill-opacity:1;" d="M 269.5 177.484375 L 269.21875 175.226562 C 269.101562 174.480469 268.957031 173.738281 268.824219 172.992188 L 280.382812 170.921875 C 280.527344 171.773438 280.691406 172.621094 280.824219 173.476562 L 281.152344 176.050781 L 269.5 177.484375 "/><path style=" stroke:none;fill-rule:nonzero;fill:#36b7f8;fill-opacity:1;" d="M 268.550781 171.441406 C 268.257812 169.957031 267.878906 168.488281 267.550781 167.007812 L 278.921875 164.085938 C 279.304688 165.773438 279.730469 167.453125 280.066406 169.148438 L 268.550781 171.441406 "/><path style=" stroke:none;fill-rule:nonzero;fill:#36b7f8;fill-opacity:1;" d="M 267.125 165.496094 L 266.503906 163.308594 C 266.289062 162.582031 266.027344 161.871094 265.789062 161.152344 L 276.910156 157.390625 C 277.183594 158.210938 277.476562 159.023438 277.726562 159.855469 L 278.4375 162.355469 L 267.125 165.496094 "/><path style=" stroke:none;fill-rule:nonzero;fill:#36b7f8;fill-opacity:1;" d="M 265.289062 159.660156 C 265.175781 159.296875 265.035156 158.949219 264.894531 158.597656 L 263.644531 155.425781 L 274.457031 150.84375 L 275.410156 153.261719 L 275.886719 154.464844 C 276.046875 154.871094 276.203125 155.273438 276.335938 155.683594 L 265.289062 159.660156 "/><path style=" stroke:none;fill-rule:nonzero;fill:#36b7f8;fill-opacity:1;" d="M 262.996094 153.992188 L 262.0625 151.921875 C 261.734375 151.238281 261.375 150.570312 261.035156 149.894531 L 271.476562 144.523438 C 271.867188 145.296875 272.273438 146.0625 272.648438 146.839844 L 273.71875 149.207031 L 262.996094 153.992188 "/><path style=" stroke:none;fill-rule:nonzero;fill:#36b7f8;fill-opacity:1;" d="M 260.320312 148.496094 C 259.972656 147.824219 259.574219 147.175781 259.203125 146.515625 C 258.820312 145.863281 258.457031 145.199219 258.0625 144.550781 L 268.078125 138.417969 C 268.53125 139.160156 268.949219 139.917969 269.382812 140.664062 C 269.804688 141.417969 270.257812 142.15625 270.65625 142.925781 L 260.320312 148.496094 "/><path style=" stroke:none;fill-rule:nonzero;fill:#36b7f8;fill-opacity:1;" d="M 257.214844 143.226562 L 255.988281 141.316406 L 254.671875 139.460938 L 264.207031 132.609375 L 265.710938 134.722656 L 267.113281 136.90625 L 257.214844 143.226562 "/><path style=" stroke:none;fill-rule:nonzero;fill:#36b7f8;fill-opacity:1;" d="M 253.761719 138.179688 L 252.359375 136.390625 L 251.660156 135.496094 C 251.429688 135.195312 251.191406 134.898438 250.9375 134.617188 L 259.949219 127.078125 C 260.234375 127.402344 260.503906 127.742188 260.769531 128.082031 L 261.570312 129.101562 L 263.167969 131.144531 L 253.761719 138.179688 "/><path style=" stroke:none;fill-rule:nonzero;fill:#36b7f8;fill-opacity:1;" d="M 249.910156 133.429688 C 249.410156 132.863281 248.933594 132.269531 248.410156 131.722656 L 246.84375 130.074219 L 255.273438 121.894531 L 257.0625 123.773438 C 257.65625 124.402344 258.203125 125.074219 258.773438 125.71875 L 249.910156 133.429688 "/><path style=" stroke:none;fill-rule:nonzero;fill:#36b7f8;fill-opacity:1;" d="M 245.753906 128.941406 L 244.109375 127.375 C 243.558594 126.855469 243.019531 126.320312 242.441406 125.835938 L 250.25 117.058594 C 250.910156 117.613281 251.527344 118.21875 252.15625 118.816406 L 254.027344 120.605469 L 245.753906 128.941406 "/><path style=" stroke:none;fill-rule:nonzero;fill:#36b7f8;fill-opacity:1;" d="M 241.25 124.804688 C 240.128906 123.785156 238.914062 122.878906 237.726562 121.9375 L 244.871094 112.609375 C 246.230469 113.679688 247.605469 114.722656 248.890625 115.882812 L 241.25 124.804688 "/><path style=" stroke:none;fill-rule:nonzero;fill:#36b7f8;fill-opacity:1;" d="M 236.476562 120.984375 L 234.628906 119.667969 L 233.703125 119.007812 L 232.746094 118.394531 L 239.1875 108.566406 L 240.273438 109.269531 L 241.332031 110.019531 L 243.445312 111.523438 L 236.476562 120.984375 "/><path style=" stroke:none;fill-rule:nonzero;fill:#36b7f8;fill-opacity:1;" d="M 231.425781 117.546875 L 230.46875 116.933594 C 230.148438 116.726562 229.816406 116.550781 229.488281 116.359375 L 227.523438 115.222656 L 233.21875 104.945312 L 235.46875 106.238281 C 235.839844 106.460938 236.21875 106.667969 236.585938 106.898438 L 237.675781 107.597656 L 231.425781 117.546875 "/><path style=" stroke:none;fill-rule:nonzero;fill:#0150ac;fill-opacity:1;" d="M 276.679688 187.671875 C 278.117188 187.675781 279.257812 186.523438 279.21875 185.089844 C 279.191406 183.65625 277.988281 182.566406 276.535156 182.65625 C 275.953125 182.6875 275.4375 182.902344 275.015625 183.226562 C 274.59375 183.554688 274.273438 183.996094 274.121094 184.496094 L 267.496094 184.738281 C 267.277344 178.824219 266.460938 172.933594 264.9375 167.222656 C 263.421875 161.511719 261.28125 155.96875 258.5625 150.722656 C 253.160156 140.203125 245.304688 130.988281 235.925781 123.800781 L 234.980469 125.050781 C 244.171875 132.09375 251.878906 141.132812 257.175781 151.445312 C 259.839844 156.589844 261.941406 162.023438 263.421875 167.621094 C 264.914062 173.21875 265.71875 178.996094 265.929688 184.792969 L 265.945312 185.460938 L 265.960938 186.125 L 274.15625 185.964844 C 274.515625 186.941406 275.519531 187.667969 276.679688 187.671875 "/><path style=" stroke:none;fill-rule:nonzero;fill:#007ed5;fill-opacity:1;" d="M 187.460938 124.199219 C 152.515625 124.199219 124.085938 152.671875 124.085938 187.671875 C 124.085938 222.664062 152.515625 251.140625 187.460938 251.140625 C 222.40625 251.140625 250.832031 222.664062 250.832031 187.671875 C 250.832031 152.671875 222.40625 124.199219 187.460938 124.199219 Z M 187.460938 253.585938 C 151.164062 253.585938 121.640625 224.015625 121.640625 187.671875 C 121.640625 151.324219 151.164062 121.753906 187.460938 121.753906 C 223.753906 121.753906 253.28125 151.324219 253.28125 187.671875 C 253.28125 224.015625 223.753906 253.585938 187.460938 253.585938 "/><path style=" stroke:none;fill-rule:nonzero;fill:#007ed5;fill-opacity:1;" d="M 187.460938 118.988281 C 149.644531 118.988281 118.878906 149.800781 118.878906 187.671875 C 118.878906 225.539062 149.644531 256.351562 187.460938 256.351562 C 225.273438 256.351562 256.039062 225.539062 256.039062 187.671875 C 256.039062 149.800781 225.273438 118.988281 187.460938 118.988281 Z M 187.460938 258.800781 C 148.296875 258.800781 116.433594 226.894531 116.433594 187.671875 C 116.433594 148.449219 148.296875 116.539062 187.460938 116.539062 C 226.625 116.539062 258.484375 148.449219 258.484375 187.671875 C 258.484375 226.894531 226.625 258.800781 187.460938 258.800781 "/><path style=" stroke:none;fill-rule:nonzero;fill:#36b7f8;fill-opacity:1;" d="M 187.460938 88.882812 C 133.070312 88.882812 88.820312 133.199219 88.820312 187.671875 C 88.820312 242.140625 133.070312 286.457031 187.460938 286.457031 C 241.851562 286.457031 286.101562 242.140625 286.101562 187.671875 C 286.101562 133.199219 241.851562 88.882812 187.460938 88.882812 Z M 187.460938 288.90625 C 160.457031 288.90625 135.074219 278.375 115.980469 259.253906 C 96.890625 240.132812 86.375 214.710938 86.375 187.671875 C 86.375 160.628906 96.890625 135.207031 115.980469 116.085938 C 135.074219 96.964844 160.457031 86.433594 187.460938 86.433594 C 214.460938 86.433594 239.84375 96.964844 258.9375 116.085938 C 278.03125 135.207031 288.542969 160.628906 288.542969 187.671875 C 288.542969 214.710938 278.03125 240.132812 258.9375 259.253906 C 239.84375 278.375 214.460938 288.90625 187.460938 288.90625 "/><path style=" stroke:none;fill-rule:nonzero;fill:#007ed5;fill-opacity:1;" d="M 187.460938 79.890625 C 128.117188 79.890625 79.84375 128.238281 79.84375 187.671875 C 79.84375 247.097656 128.117188 295.449219 187.460938 295.449219 C 246.796875 295.449219 295.078125 247.097656 295.078125 187.671875 C 295.078125 128.238281 246.796875 79.890625 187.460938 79.890625 Z M 187.460938 297.082031 C 158.277344 297.082031 130.84375 285.699219 110.207031 265.035156 C 89.574219 244.371094 78.210938 216.894531 78.210938 187.671875 C 78.210938 158.445312 89.574219 130.96875 110.207031 110.304688 C 130.84375 89.640625 158.277344 78.257812 187.460938 78.257812 C 216.640625 78.257812 244.074219 89.640625 264.707031 110.304688 C 285.34375 130.96875 296.707031 158.445312 296.707031 187.671875 C 296.707031 216.894531 285.34375 244.371094 264.707031 265.035156 C 244.074219 285.699219 216.640625 297.082031 187.460938 297.082031 "/><path style=" stroke:none;fill-rule:nonzero;fill:#007ed5;fill-opacity:1;" d="M 187.460938 76.480469 C 126.242188 76.480469 76.4375 126.359375 76.4375 187.671875 C 76.4375 248.980469 126.242188 298.863281 187.460938 298.863281 C 248.679688 298.863281 298.484375 248.980469 298.484375 187.671875 C 298.484375 126.359375 248.679688 76.480469 187.460938 76.480469 Z M 187.460938 300.492188 C 157.367188 300.492188 129.078125 288.757812 107.800781 267.449219 C 86.523438 246.140625 74.804688 217.804688 74.804688 187.671875 C 74.804688 157.535156 86.523438 129.203125 107.800781 107.890625 C 129.078125 86.582031 157.367188 74.84375 187.460938 74.84375 C 217.550781 74.84375 245.839844 86.582031 267.117188 107.890625 C 288.394531 129.203125 300.113281 157.535156 300.113281 187.671875 C 300.113281 217.804688 288.394531 246.140625 267.117188 267.449219 C 245.839844 288.757812 217.550781 300.492188 187.460938 300.492188 "/><path style=" stroke:none;fill-rule:nonzero;fill:#0150ac;fill-opacity:1;" d="M 252.488281 314.234375 C 250.953125 313.40625 249.035156 313.980469 248.207031 315.519531 C 248.003906 315.898438 247.882812 316.304688 247.84375 316.707031 C 230.753906 324.761719 211.785156 329.515625 191.734375 330.097656 C 116.84375 332.285156 53.636719 275.648438 46.402344 202.0625 C 46.410156 202.058594 46.417969 202.058594 46.425781 202.050781 C 47.90625 201.132812 48.371094 199.183594 47.453125 197.695312 C 46.535156 196.207031 44.589844 195.746094 43.105469 196.664062 C 41.621094 197.582031 41.15625 199.53125 42.074219 201.019531 C 42.519531 201.746094 43.210938 202.222656 43.976562 202.421875 C 45.535156 218.304688 49.652344 233.652344 56.289062 248.175781 C 64.058594 265.171875 74.910156 280.320312 88.546875 293.207031 C 102.183594 306.089844 117.917969 316.0625 135.3125 322.835938 C 153.320312 329.855469 172.328125 333.121094 191.804688 332.554688 C 211.285156 331.988281 230.066406 327.613281 247.636719 319.558594 C 247.964844 319.414062 248.289062 319.253906 248.609375 319.101562 C 248.855469 319.382812 249.144531 319.621094 249.488281 319.808594 C 251.023438 320.636719 252.941406 320.0625 253.769531 318.523438 C 254.597656 316.984375 254.027344 315.066406 252.488281 314.234375 "/><path style=" stroke:none;fill-rule:nonzero;fill:#0150ac;fill-opacity:1;" d="M 249.152344 55.34375 C 248.3125 55.367188 247.5625 55.722656 247.015625 56.269531 C 244.675781 55.207031 242.300781 54.199219 239.894531 53.261719 C 221.886719 46.246094 202.878906 42.976562 183.402344 43.542969 C 163.921875 44.113281 145.140625 48.484375 127.570312 56.539062 C 110.597656 64.320312 95.46875 75.1875 82.605469 88.84375 C 69.742188 102.503906 59.785156 118.257812 53.019531 135.675781 C 48.042969 148.484375 44.96875 161.804688 43.800781 175.433594 C 43.429688 175.5 43.066406 175.636719 42.726562 175.847656 C 41.238281 176.761719 40.78125 178.710938 41.695312 180.203125 C 42.613281 181.691406 44.558594 182.152344 46.042969 181.234375 C 47.53125 180.316406 47.992188 178.367188 47.078125 176.878906 C 46.847656 176.507812 46.554688 176.203125 46.222656 175.964844 C 52.21875 105 110.734375 48.121094 183.476562 46 C 205.769531 45.351562 227.027344 49.914062 246.085938 58.585938 C 246.085938 58.589844 246.085938 58.59375 246.085938 58.601562 C 246.136719 60.347656 247.59375 61.722656 249.335938 61.671875 C 251.082031 61.621094 252.453125 60.160156 252.40625 58.417969 C 252.355469 56.667969 250.898438 55.292969 249.152344 55.34375 "/><path style=" stroke:none;fill-rule:nonzero;fill:#0150ac;fill-opacity:1;" d="M 318.917969 127.925781 C 311.148438 110.929688 300.296875 95.777344 286.660156 82.894531 C 281.539062 78.050781 276.113281 73.632812 270.414062 69.632812 C 270.542969 69.277344 270.609375 68.894531 270.59375 68.496094 C 270.546875 66.75 269.089844 65.375 267.34375 65.425781 C 265.601562 65.472656 264.226562 66.933594 264.277344 68.679688 C 264.328125 70.425781 265.785156 71.804688 267.527344 71.75 C 267.9375 71.742188 268.324219 71.648438 268.675781 71.5 C 304.261719 96.390625 328.082031 137.222656 329.4375 183.914062 C 330.863281 232.863281 307.269531 276.832031 270.277344 303.484375 C 268.746094 302.675781 266.84375 303.25 266.019531 304.78125 C 265.191406 306.324219 265.765625 308.238281 267.300781 309.070312 C 268.835938 309.902344 270.753906 309.324219 271.582031 307.789062 C 271.984375 307.046875 272.054688 306.214844 271.851562 305.460938 C 279.289062 300.101562 286.226562 294.023438 292.601562 287.253906 C 305.46875 273.597656 315.421875 257.839844 322.1875 240.421875 C 329.195312 222.386719 332.460938 203.351562 331.890625 183.839844 C 331.324219 164.335938 326.960938 145.519531 318.917969 127.925781 "/><path style=" stroke:none;fill-rule:nonzero;fill:#007ed5;fill-opacity:1;" d="M 351.164062 222.410156 L 350.351562 225.984375 L 349.949219 227.773438 C 349.816406 228.371094 349.679688 228.964844 349.503906 229.554688 L 347.53125 236.617188 L 345.21875 243.578125 L 344.925781 244.445312 L 344.597656 245.300781 L 343.933594 247.011719 L 342.605469 250.429688 C 335.679688 267.515625 325.933594 283.4375 313.902344 297.394531 C 313.386719 297.175781 312.835938 297.085938 312.289062 297.128906 C 311.84375 297.160156 311.40625 297.277344 311 297.476562 C 310.59375 297.679688 310.226562 297.964844 309.890625 298.3125 C 308.574219 299.714844 308.652344 301.941406 310.066406 303.28125 C 311.480469 304.625 313.75 304.515625 315.128906 303.042969 C 315.480469 302.679688 315.714844 302.246094 315.863281 301.796875 C 316.011719 301.347656 316.070312 300.878906 316.046875 300.417969 C 316.011719 299.863281 315.847656 299.320312 315.566406 298.839844 C 327.753906 284.699219 337.628906 268.570312 344.648438 251.257812 L 345.992188 247.796875 L 346.664062 246.0625 L 346.996094 245.195312 L 347.292969 244.3125 L 349.636719 237.261719 L 351.636719 230.105469 C 351.8125 229.511719 351.949219 228.90625 352.082031 228.300781 L 352.496094 226.488281 L 353.316406 222.863281 C 355.351562 213.167969 356.535156 203.292969 356.867188 193.390625 L 354.667969 193.316406 C 354.339844 203.089844 353.171875 212.835938 351.164062 222.410156 "/><path style=" stroke:none;fill-rule:nonzero;fill:#36b7f8;fill-opacity:1;" d="M 288.117188 319.207031 L 281.601562 310.707031 L 281.84375 310.515625 L 283.679688 309.046875 L 285.519531 307.578125 C 286.132812 307.089844 286.753906 306.609375 287.332031 306.078125 L 290.867188 302.964844 L 291.753906 302.1875 C 292.050781 301.929688 292.34375 301.675781 292.621094 301.394531 L 294.3125 299.753906 L 297.691406 296.472656 L 300.914062 293.039062 L 302.527344 291.320312 C 303.054688 290.742188 303.546875 290.128906 304.0625 289.535156 L 307.117188 285.953125 C 307.644531 285.367188 308.097656 284.71875 308.585938 284.105469 L 310.023438 282.242188 L 311.464844 280.378906 C 311.703125 280.066406 311.953125 279.765625 312.179688 279.441406 L 312.855469 278.472656 L 315.554688 274.617188 L 316.234375 273.652344 C 316.457031 273.332031 316.65625 272.988281 316.867188 272.660156 L 318.121094 270.664062 L 319.382812 268.675781 L 320.011719 267.679688 L 320.324219 267.179688 L 320.613281 266.667969 L 322.933594 262.566406 C 323.3125 261.878906 323.714844 261.207031 324.085938 260.511719 L 325.144531 258.40625 L 325.863281 256.984375 C 327.3125 257.230469 328.785156 256.570312 329.457031 255.246094 C 330.222656 253.566406 329.378906 251.542969 327.601562 250.753906 C 325.820312 249.957031 323.816406 250.613281 323.085938 252.207031 C 322.453125 253.460938 322.824219 254.984375 323.894531 255.996094 L 323.183594 257.398438 L 322.144531 259.476562 C 321.777344 260.15625 321.382812 260.824219 321.003906 261.5 L 318.71875 265.542969 L 318.433594 266.050781 L 318.125 266.539062 L 317.503906 267.519531 L 315.027344 271.449219 C 314.816406 271.773438 314.625 272.109375 314.402344 272.425781 L 313.734375 273.378906 L 311.070312 277.183594 L 310.40625 278.136719 C 310.183594 278.453125 309.9375 278.75 309.703125 279.058594 L 308.28125 280.894531 L 306.859375 282.734375 C 306.378906 283.339844 305.9375 283.976562 305.417969 284.554688 L 302.402344 288.085938 C 301.898438 288.671875 301.410156 289.277344 300.890625 289.847656 L 299.296875 291.539062 L 296.125 294.929688 L 292.789062 298.160156 L 291.125 299.78125 C 290.851562 300.054688 290.558594 300.308594 290.265625 300.5625 L 289.394531 301.328125 L 285.910156 304.394531 C 285.339844 304.921875 284.730469 305.390625 284.121094 305.875 L 282.308594 307.320312 L 280.496094 308.769531 L 280.261719 308.960938 L 279.554688 309.523438 C 279.257812 309.746094 278.953125 309.957031 278.652344 310.175781 L 279.96875 311.941406 L 286.375 320.527344 C 285.515625 321.71875 285.472656 323.382812 286.386719 324.652344 C 287.523438 326.238281 289.773438 326.5625 291.417969 325.375 C 293.003906 324.117188 293.296875 321.855469 292.082031 320.332031 C 291.109375 319.109375 289.5 318.699219 288.117188 319.207031 "/><path style=" stroke:none;fill-rule:nonzero;fill:#007ed5;fill-opacity:1;" d="M 303.339844 325.285156 L 291.828125 311.640625 C 305.429688 300.089844 317.160156 286.328125 326.371094 271.027344 C 335.625 255.503906 342.28125 238.453125 346.003906 220.773438 C 346.121094 220.285156 346.238281 219.796875 346.320312 219.300781 L 344.160156 218.871094 L 338.683594 217.78125 C 338.671875 217.691406 338.652344 217.605469 338.628906 217.515625 C 338.519531 217.09375 338.328125 216.699219 338.066406 216.351562 C 337.539062 215.652344 336.734375 215.140625 335.777344 214.964844 C 334.816406 214.789062 333.890625 214.976562 333.164062 215.417969 C 332.800781 215.640625 332.492188 215.921875 332.253906 216.257812 C 332.019531 216.59375 331.851562 216.976562 331.746094 217.394531 C 331.359375 219.066406 332.589844 220.78125 334.488281 221.21875 C 336.011719 221.574219 337.511719 220.949219 338.253906 219.773438 L 343.71875 220.9375 C 340.019531 238.15625 333.503906 254.757812 324.484375 269.894531 C 315.035156 285.59375 302.898438 299.652344 288.792969 311.320312 L 301.515625 326.8125 C 300.632812 328.121094 300.605469 329.832031 301.570312 331.050781 C 302.78125 332.582031 305.152344 332.714844 306.863281 331.34375 C 308.53125 329.921875 308.808594 327.542969 307.527344 326.082031 C 306.488281 324.894531 304.792969 324.632812 303.339844 325.285156 "/><path style=" stroke:none;fill-rule:nonzero;fill:#007ed5;fill-opacity:1;" d="M 155.730469 352.257812 C 155.53125 350.804688 154.433594 349.597656 152.945312 349.230469 C 151.074219 348.804688 149.183594 349.996094 148.730469 351.894531 C 148.277344 353.789062 149.507812 355.691406 151.472656 356.140625 C 153.0625 356.527344 154.609375 355.746094 155.335938 354.425781 C 193.089844 361.703125 233.273438 355.753906 267.179688 337.523438 L 266.144531 335.578125 C 232.679688 353.574219 192.996094 359.445312 155.730469 352.257812 "/><path style=" stroke:none;fill-rule:nonzero;fill:#36b7f8;fill-opacity:1;" d="M 123.085938 346.726562 C 123.941406 346.375 124.640625 345.699219 125 344.792969 C 125.359375 343.890625 125.316406 342.921875 124.964844 342.101562 C 124.75 341.597656 124.417969 341.160156 123.996094 340.800781 L 128.113281 330.875 C 149.6875 339.867188 173.289062 343.855469 196.636719 342.378906 C 197.148438 343.765625 198.464844 344.691406 199.945312 344.578125 C 201.789062 344.4375 203.121094 342.75 202.914062 340.808594 C 202.710938 338.867188 201.128906 337.402344 199.382812 337.535156 C 197.988281 337.644531 196.863281 338.75 196.519531 340.179688 C 172.820312 341.679688 148.871094 337.46875 127.101562 328.054688 L 126.230469 330.078125 L 121.992188 339.921875 C 120.53125 339.773438 119.0625 340.570312 118.417969 341.996094 C 117.613281 343.773438 118.464844 345.882812 120.3125 346.707031 C 121.226562 347.132812 122.238281 347.078125 123.085938 346.726562 "/><g clip-rule="nonzero" clip-path="url(#3dbf26494f)"><path style=" stroke:none;fill-rule:nonzero;fill:#007ed5;fill-opacity:1;" d="M 126.578125 357.253906 C 126.496094 357.183594 126.410156 357.113281 126.320312 357.046875 L 132.398438 340.226562 C 140.449219 343.132812 148.726562 345.414062 157.128906 347.027344 L 160.554688 347.628906 L 163.121094 348.085938 C 163.410156 348.128906 163.695312 348.160156 163.984375 348.195312 L 170.882812 349.058594 C 173.191406 349.261719 175.507812 349.410156 177.820312 349.585938 C 178.398438 349.625 178.976562 349.6875 179.554688 349.703125 L 181.292969 349.746094 L 184.769531 349.828125 C 194.042969 349.949219 203.324219 349.300781 212.5 347.921875 C 220.960938 346.574219 229.304688 344.550781 237.445312 341.917969 L 237.453125 341.949219 L 239.476562 341.25 L 236.984375 333.871094 C 238.066406 333.011719 238.519531 331.453125 237.988281 329.980469 C 237.332031 328.144531 235.480469 327.105469 233.859375 327.664062 C 233.046875 327.941406 232.429688 328.574219 232.085938 329.367188 C 231.734375 330.136719 231.648438 331.074219 231.933594 332.007812 C 232.222656 332.941406 232.824219 333.6875 233.582031 334.132812 C 234.03125 334.386719 234.539062 334.523438 235.054688 334.53125 L 236.765625 339.820312 C 228.738281 342.417969 220.507812 344.414062 212.164062 345.742188 C 203.109375 347.105469 193.945312 347.746094 184.804688 347.621094 L 181.371094 347.542969 L 179.65625 347.503906 C 179.085938 347.488281 178.519531 347.425781 177.945312 347.386719 C 175.664062 347.207031 173.382812 347.066406 171.105469 346.867188 L 164.300781 346.015625 C 164.019531 345.976562 163.734375 345.949219 163.449219 345.90625 L 162.605469 345.753906 L 160.914062 345.457031 L 157.539062 344.863281 C 148.5625 343.136719 139.726562 340.648438 131.164062 337.429688 L 124.101562 356.203125 C 122.527344 356.09375 121.027344 356.925781 120.453125 358.371094 C 119.730469 360.1875 120.804688 362.300781 122.847656 363.09375 C 123.355469 363.285156 123.875 363.390625 124.378906 363.378906 C 124.886719 363.363281 125.378906 363.253906 125.820312 363.066406 C 126.707031 362.6875 127.40625 361.992188 127.726562 361.070312 C 128.042969 360.148438 127.921875 359.175781 127.476562 358.355469 C 127.253906 357.945312 126.949219 357.570312 126.578125 357.253906 "/></g><path style=" stroke:none;fill-rule:nonzero;fill:#007ed5;fill-opacity:1;" d="M 55.519531 290.839844 C 49.507812 283.132812 44.167969 274.90625 39.574219 266.273438 C 35.515625 258.636719 32.011719 250.691406 29.214844 242.5 C 30.40625 241.601562 30.949219 240.019531 30.449219 238.550781 C 30.292969 238.09375 30.042969 237.695312 29.746094 237.347656 C 29.464844 236.996094 29.113281 236.710938 28.71875 236.496094 C 27.933594 236.074219 26.980469 235.945312 26.046875 236.222656 C 25.113281 236.503906 24.378906 237.140625 23.953125 237.960938 C 23.734375 238.367188 23.597656 238.820312 23.546875 239.296875 C 23.503906 239.765625 23.574219 240.246094 23.734375 240.722656 C 24.257812 242.253906 25.660156 243.21875 27.140625 243.207031 C 39.671875 279.625 64.976562 311.492188 97.710938 331.738281 L 98.875 329.867188 C 90.589844 324.695312 82.753906 318.800781 75.472656 312.277344 C 68.203125 305.742188 61.539062 298.542969 55.519531 290.839844 "/><path style=" stroke:none;fill-rule:nonzero;fill:#36b7f8;fill-opacity:1;" d="M 20.328125 212.089844 C 21.875 211.859375 23.058594 210.664062 23.335938 209.210938 L 33.945312 207.820312 L 34.285156 210.46875 C 34.335938 210.855469 34.375 211.25 34.441406 211.632812 L 34.652344 212.792969 L 35.074219 215.117188 L 35.488281 217.433594 L 35.695312 218.59375 C 35.761719 218.984375 35.835938 219.367188 35.933594 219.75 L 37.003906 224.339844 L 37.535156 226.632812 C 37.726562 227.394531 37.960938 228.144531 38.175781 228.898438 L 39.46875 233.425781 C 39.667969 234.1875 39.933594 234.925781 40.1875 235.667969 L 40.949219 237.898438 L 41.707031 240.128906 C 41.964844 240.867188 42.199219 241.617188 42.503906 242.339844 L 44.25 246.714844 C 44.542969 247.441406 44.816406 248.179688 45.128906 248.898438 L 46.109375 251.039062 L 48.0625 255.324219 C 48.757812 256.726562 49.5 258.109375 50.214844 259.507812 C 51.589844 262.332031 53.25 265 54.8125 267.722656 L 55.402344 268.742188 C 55.605469 269.074219 55.824219 269.402344 56.035156 269.730469 L 57.320312 271.707031 L 58.1875 273.042969 C 57.832031 273.472656 57.585938 273.96875 57.460938 274.484375 C 57.359375 274.914062 57.339844 275.363281 57.40625 275.796875 C 57.441406 276.011719 57.496094 276.226562 57.578125 276.433594 C 57.660156 276.640625 57.777344 276.835938 57.90625 277.023438 C 58.988281 278.519531 61.140625 278.804688 62.714844 277.65625 C 64.289062 276.507812 64.738281 274.425781 63.710938 273.007812 C 63.582031 272.832031 63.4375 272.671875 63.277344 272.527344 C 63.128906 272.382812 62.960938 272.25 62.785156 272.140625 C 62.429688 271.921875 62.03125 271.777344 61.609375 271.710938 C 61.097656 271.632812 60.554688 271.667969 60.019531 271.828125 L 59.167969 270.507812 L 57.90625 268.5625 C 57.695312 268.238281 57.476562 267.917969 57.273438 267.589844 L 56.695312 266.585938 C 55.160156 263.898438 53.519531 261.269531 52.164062 258.484375 C 51.460938 257.109375 50.726562 255.746094 50.042969 254.359375 L 48.117188 250.136719 L 47.148438 248.027344 C 46.84375 247.316406 46.574219 246.59375 46.285156 245.875 L 44.566406 241.5625 C 44.261719 240.851562 44.035156 240.113281 43.78125 239.382812 L 43.03125 237.183594 L 42.28125 234.992188 C 42.027344 234.257812 41.769531 233.53125 41.574219 232.777344 L 40.296875 228.316406 C 40.085938 227.570312 39.855469 226.832031 39.664062 226.082031 L 39.140625 223.816406 L 38.085938 219.296875 C 37.988281 218.917969 37.917969 218.539062 37.855469 218.15625 L 37.648438 217.011719 L 37.238281 214.726562 L 36.824219 212.4375 L 36.617188 211.296875 C 36.550781 210.914062 36.511719 210.527344 36.460938 210.144531 L 36.128906 207.535156 L 35.871094 205.53125 L 33.683594 205.785156 L 23.058594 207.039062 C 22.417969 205.703125 20.972656 204.832031 19.417969 204.988281 C 17.480469 205.179688 16.113281 206.964844 16.371094 208.972656 C 16.632812 210.984375 18.402344 212.378906 20.328125 212.089844 "/><g clip-rule="nonzero" clip-path="url(#0645dd4c3c)"><path style=" stroke:none;fill-rule:nonzero;fill:#007ed5;fill-opacity:1;" d="M 27.96875 216.222656 C 29.429688 224.675781 31.660156 232.984375 34.464844 241.078125 C 37.515625 249.84375 41.304688 258.351562 45.792969 266.476562 L 49.292969 272.496094 L 53.078125 278.34375 C 55.714844 282.160156 58.417969 285.933594 61.367188 289.523438 C 66.753906 296.183594 72.667969 302.414062 79.023438 308.164062 L 79 308.1875 C 79.519531 308.679688 80.078125 309.125 80.617188 309.59375 L 85.746094 303.734375 C 87.042969 304.230469 88.617188 303.835938 89.628906 302.640625 C 90.882812 301.148438 90.847656 299.035156 89.535156 297.921875 C 89.371094 297.78125 89.195312 297.667969 89.007812 297.566406 C 88.832031 297.460938 88.640625 297.378906 88.445312 297.316406 C 88.054688 297.191406 87.636719 297.152344 87.210938 297.191406 C 86.367188 297.273438 85.511719 297.675781 84.847656 298.390625 C 84.183594 299.105469 83.847656 300 83.84375 300.878906 C 83.84375 301.316406 83.925781 301.746094 84.089844 302.148438 C 84.125 302.230469 84.164062 302.3125 84.207031 302.394531 L 80.496094 306.519531 C 74.226562 300.855469 68.394531 294.707031 63.082031 288.136719 C 60.171875 284.597656 57.503906 280.871094 54.902344 277.105469 L 51.167969 271.339844 L 47.71875 265.40625 C 43.292969 257.390625 39.550781 249 36.542969 240.351562 C 33.777344 232.371094 31.574219 224.175781 30.136719 215.839844 L 30.160156 215.835938 L 29.78125 213.753906 L 10.019531 217.007812 C 9.746094 216.480469 9.367188 216.027344 8.917969 215.675781 C 8.175781 215.09375 7.261719 214.792969 6.292969 214.9375 C 5.335938 215.078125 4.503906 215.644531 3.988281 216.445312 C 3.484375 217.246094 3.265625 218.28125 3.460938 219.359375 C 3.847656 221.515625 5.714844 222.960938 7.625 222.582031 C 9.167969 222.28125 10.273438 220.933594 10.453125 219.347656 L 27.96875 216.222656 "/></g><path style=" stroke:none;fill-rule:nonzero;fill:#007ed5;fill-opacity:1;" d="M 23.648438 152.875 L 24.863281 147.507812 C 24.996094 146.914062 25.128906 146.316406 25.304688 145.730469 L 27.28125 138.667969 L 29.59375 131.707031 L 29.882812 130.835938 L 30.214844 129.980469 L 30.878906 128.273438 L 32.203125 124.855469 C 39.132812 107.769531 48.875 91.847656 60.90625 77.890625 C 61.425781 78.105469 61.976562 78.195312 62.519531 78.15625 C 62.964844 78.125 63.40625 78.007812 63.8125 77.808594 C 64.214844 77.605469 64.585938 77.316406 64.921875 76.972656 C 66.238281 75.570312 66.15625 73.34375 64.742188 72.003906 C 63.328125 70.660156 61.0625 70.765625 59.683594 72.242188 C 59.332031 72.605469 59.09375 73.039062 58.949219 73.488281 C 58.800781 73.9375 58.738281 74.40625 58.765625 74.863281 C 58.800781 75.421875 58.964844 75.960938 59.246094 76.441406 C 47.058594 90.585938 37.183594 106.714844 30.160156 124.023438 L 28.820312 127.488281 L 27.8125 130.089844 L 27.515625 130.96875 L 25.171875 138.023438 L 23.175781 145.179688 C 22.996094 145.773438 22.863281 146.378906 22.726562 146.984375 L 22.316406 148.792969 L 21.492188 152.417969 C 19.460938 162.117188 18.277344 171.992188 17.941406 181.894531 L 20.140625 181.964844 C 20.472656 172.191406 21.640625 162.449219 23.648438 152.875 "/><path style=" stroke:none;fill-rule:nonzero;fill:#36b7f8;fill-opacity:1;" d="M 86.691406 56.078125 L 93.210938 64.574219 L 92.972656 64.769531 L 89.289062 67.707031 C 88.675781 68.195312 88.054688 68.671875 87.476562 69.207031 L 83.941406 72.320312 L 83.058594 73.09375 C 82.761719 73.351562 82.464844 73.609375 82.1875 73.886719 L 80.5 75.53125 L 77.117188 78.808594 L 73.898438 82.246094 L 72.285156 83.960938 C 71.753906 84.542969 71.261719 85.152344 70.75 85.75 L 67.6875 89.332031 C 67.167969 89.917969 66.714844 90.5625 66.226562 91.175781 L 64.789062 93.042969 L 63.34375 94.90625 C 63.109375 95.21875 62.855469 95.523438 62.628906 95.839844 L 61.957031 96.808594 L 59.257812 100.667969 L 58.578125 101.632812 C 58.351562 101.953125 58.15625 102.292969 57.941406 102.625 L 56.6875 104.617188 L 54.800781 107.605469 L 54.484375 108.101562 L 54.195312 108.617188 L 51.878906 112.71875 C 51.496094 113.40625 51.097656 114.078125 50.726562 114.773438 L 49.667969 116.878906 L 48.949219 118.300781 C 47.496094 118.050781 46.023438 118.714844 45.355469 120.035156 C 44.585938 121.71875 45.433594 123.738281 47.210938 124.53125 C 48.992188 125.324219 50.996094 124.667969 51.722656 123.078125 C 52.359375 121.820312 51.988281 120.296875 50.917969 119.289062 L 51.625 117.886719 L 52.667969 115.808594 C 53.03125 115.125 53.425781 114.460938 53.804688 113.785156 L 56.089844 109.742188 L 56.375 109.234375 L 56.6875 108.746094 L 57.308594 107.761719 L 58.546875 105.800781 L 59.78125 103.832031 C 59.992188 103.511719 60.183594 103.171875 60.410156 102.855469 L 61.078125 101.90625 L 63.738281 98.101562 L 64.402344 97.148438 C 64.628906 96.828125 64.875 96.535156 65.105469 96.226562 L 66.53125 94.386719 L 67.949219 92.550781 C 68.429688 91.941406 68.875 91.308594 69.390625 90.730469 L 72.40625 87.199219 C 72.914062 86.609375 73.398438 86.007812 73.921875 85.433594 L 75.511719 83.746094 L 78.6875 80.355469 L 82.019531 77.121094 L 83.6875 75.503906 C 83.957031 75.230469 84.25 74.972656 84.542969 74.71875 L 85.414062 73.957031 L 88.898438 70.886719 C 89.46875 70.363281 90.082031 69.890625 90.6875 69.410156 L 92.503906 67.960938 L 94.3125 66.515625 L 94.550781 66.324219 L 95.257812 65.761719 C 95.554688 65.539062 95.859375 65.328125 96.15625 65.109375 L 94.839844 63.339844 L 88.433594 54.757812 C 89.292969 53.566406 89.335938 51.898438 88.425781 50.628906 C 87.285156 49.046875 85.035156 48.722656 83.394531 49.90625 C 81.808594 51.164062 81.511719 53.429688 82.726562 54.953125 C 83.703125 56.175781 85.3125 56.585938 86.691406 56.078125 "/><path style=" stroke:none;fill-rule:nonzero;fill:#007ed5;fill-opacity:1;" d="M 71.46875 49.996094 L 82.984375 63.644531 C 69.378906 75.191406 57.648438 88.953125 48.441406 104.257812 C 39.1875 119.78125 32.535156 136.828125 28.804688 154.507812 C 28.691406 154.996094 28.570312 155.484375 28.492188 155.984375 L 30.652344 156.414062 L 36.125 157.5 C 36.140625 157.589844 36.15625 157.679688 36.179688 157.769531 C 36.289062 158.191406 36.480469 158.585938 36.742188 158.933594 C 37.269531 159.632812 38.074219 160.144531 39.035156 160.320312 C 39.992188 160.496094 40.921875 160.304688 41.644531 159.867188 C 42.007812 159.644531 42.316406 159.363281 42.558594 159.027344 C 42.792969 158.691406 42.960938 158.308594 43.066406 157.890625 C 43.449219 156.21875 42.21875 154.503906 40.324219 154.0625 C 38.800781 153.710938 37.296875 154.335938 36.554688 155.507812 L 31.089844 154.347656 C 34.789062 137.125 41.304688 120.527344 50.324219 105.390625 C 59.773438 89.691406 71.910156 75.628906 86.015625 63.960938 L 73.292969 48.472656 C 74.175781 47.164062 74.203125 45.453125 73.238281 44.230469 C 72.027344 42.703125 69.660156 42.570312 67.949219 43.941406 C 66.28125 45.363281 66 47.742188 67.28125 49.203125 C 68.320312 50.386719 70.019531 50.652344 71.46875 49.996094 "/><path style=" stroke:none;fill-rule:nonzero;fill:#007ed5;fill-opacity:1;" d="M 219.078125 23.027344 C 219.28125 24.476562 220.375 25.683594 221.863281 26.054688 C 223.738281 26.480469 225.625 25.289062 226.078125 23.390625 C 226.535156 21.492188 225.304688 19.59375 223.335938 19.144531 C 221.753906 18.757812 220.203125 19.539062 219.476562 20.859375 C 181.722656 13.582031 141.535156 19.527344 107.628906 37.757812 L 108.664062 39.707031 C 142.128906 21.707031 181.8125 15.839844 219.078125 23.027344 "/><path style=" stroke:none;fill-rule:nonzero;fill:#36b7f8;fill-opacity:1;" d="M 251.722656 28.554688 C 250.871094 28.910156 250.167969 29.582031 249.808594 30.492188 C 249.449219 31.394531 249.492188 32.359375 249.847656 33.183594 C 250.058594 33.683594 250.394531 34.121094 250.816406 34.480469 L 246.695312 44.40625 C 225.121094 35.417969 201.519531 31.425781 178.171875 32.902344 C 177.660156 31.519531 176.347656 30.589844 174.863281 30.707031 C 173.015625 30.847656 171.691406 32.535156 171.894531 34.476562 C 172.097656 36.417969 173.683594 37.882812 175.425781 37.746094 C 176.820312 37.636719 177.949219 36.535156 178.289062 35.105469 C 201.984375 33.605469 225.9375 37.8125 247.707031 47.230469 L 252.816406 35.363281 C 254.28125 35.511719 255.746094 34.710938 256.390625 33.285156 C 257.195312 31.511719 256.347656 29.398438 254.5 28.574219 C 253.585938 28.148438 252.570312 28.207031 251.722656 28.554688 "/><g clip-rule="nonzero" clip-path="url(#db1e40c0fc)"><path style=" stroke:none;fill-rule:nonzero;fill:#007ed5;fill-opacity:1;" d="M 248.230469 18.027344 C 248.3125 18.101562 248.398438 18.167969 248.488281 18.238281 L 242.410156 35.058594 C 234.359375 32.152344 226.085938 29.871094 217.679688 28.257812 L 214.257812 27.65625 L 212.546875 27.351562 L 211.6875 27.199219 C 211.402344 27.152344 211.113281 27.125 210.828125 27.085938 L 203.925781 26.226562 C 201.617188 26.023438 199.304688 25.875 196.992188 25.695312 C 196.414062 25.660156 195.835938 25.59375 195.257812 25.578125 L 193.519531 25.539062 L 190.042969 25.457031 C 180.769531 25.332031 171.484375 25.980469 162.308594 27.367188 C 153.847656 28.710938 145.507812 30.734375 137.363281 33.367188 L 137.355469 33.335938 L 135.332031 34.03125 L 136.035156 36.121094 L 137.824219 41.414062 C 136.742188 42.273438 136.292969 43.828125 136.820312 45.304688 C 137.480469 47.136719 139.328125 48.179688 140.949219 47.621094 C 141.765625 47.34375 142.378906 46.710938 142.722656 45.917969 C 143.078125 45.148438 143.160156 44.210938 142.875 43.277344 C 142.589844 42.34375 141.984375 41.597656 141.230469 41.152344 C 140.777344 40.898438 140.273438 40.757812 139.753906 40.753906 L 138.042969 35.464844 C 146.074219 32.867188 154.300781 30.871094 162.648438 29.542969 C 171.699219 28.179688 180.863281 27.539062 190.007812 27.660156 L 193.4375 27.742188 L 195.152344 27.78125 C 195.726562 27.796875 196.292969 27.859375 196.863281 27.894531 C 199.144531 28.074219 201.425781 28.21875 203.703125 28.417969 L 210.511719 29.269531 C 210.792969 29.308594 211.078125 29.332031 211.363281 29.378906 L 212.203125 29.527344 L 213.894531 29.828125 L 217.269531 30.421875 C 226.253906 32.148438 235.082031 34.632812 243.644531 37.855469 L 250.710938 19.082031 C 252.285156 19.191406 253.78125 18.359375 254.359375 16.910156 C 255.078125 15.097656 254.007812 12.984375 251.960938 12.191406 C 251.453125 12 250.9375 11.894531 250.429688 11.902344 C 249.921875 11.921875 249.433594 12.03125 248.988281 12.21875 C 248.105469 12.59375 247.402344 13.292969 247.082031 14.210938 C 246.765625 15.132812 246.886719 16.105469 247.332031 16.929688 C 247.554688 17.339844 247.859375 17.714844 248.230469 18.027344 "/></g><path style=" stroke:none;fill-rule:nonzero;fill:#007ed5;fill-opacity:1;" d="M 319.289062 84.445312 C 325.300781 92.152344 330.644531 100.378906 335.238281 109.011719 C 339.292969 116.648438 342.800781 124.589844 345.597656 132.785156 C 344.402344 133.683594 343.859375 135.261719 344.359375 136.730469 C 344.515625 137.191406 344.765625 137.59375 345.0625 137.9375 C 345.347656 138.285156 345.699219 138.574219 346.09375 138.789062 C 346.875 139.210938 347.832031 139.339844 348.761719 139.0625 C 349.699219 138.78125 350.429688 138.144531 350.859375 137.324219 C 351.074219 136.914062 351.210938 136.460938 351.265625 135.988281 C 351.304688 135.519531 351.234375 135.039062 351.074219 134.558594 C 350.550781 133.027344 349.152344 132.066406 347.671875 132.074219 C 335.140625 95.65625 309.835938 63.792969 277.101562 43.546875 L 275.933594 45.414062 C 284.21875 50.589844 292.0625 56.480469 299.335938 63.007812 C 306.605469 69.542969 313.269531 76.742188 319.289062 84.445312 "/><path style=" stroke:none;fill-rule:nonzero;fill:#36b7f8;fill-opacity:1;" d="M 354.480469 163.195312 C 352.933594 163.425781 351.757812 164.621094 351.472656 166.070312 L 340.863281 167.460938 L 340.527344 164.820312 C 340.472656 164.425781 340.4375 164.035156 340.371094 163.648438 L 340.15625 162.488281 L 339.738281 160.167969 L 339.320312 157.851562 L 339.113281 156.691406 C 339.046875 156.300781 338.976562 155.914062 338.878906 155.535156 L 337.808594 150.945312 L 337.277344 148.648438 C 337.082031 147.890625 336.847656 147.140625 336.636719 146.382812 L 335.339844 141.855469 C 335.144531 141.097656 334.882812 140.355469 334.621094 139.613281 L 333.859375 137.386719 L 333.101562 135.15625 C 332.84375 134.417969 332.613281 133.664062 332.304688 132.941406 L 330.558594 128.570312 C 330.265625 127.84375 329.992188 127.105469 329.683594 126.386719 L 328.703125 124.246094 L 326.746094 119.960938 C 326.054688 118.554688 325.308594 117.171875 324.597656 115.773438 C 323.21875 112.953125 321.558594 110.28125 320 107.558594 L 319.410156 106.542969 C 319.207031 106.207031 318.984375 105.882812 318.773438 105.550781 L 317.488281 103.578125 L 316.625 102.242188 C 316.976562 101.8125 317.222656 101.316406 317.347656 100.796875 C 317.453125 100.367188 317.472656 99.921875 317.402344 99.488281 C 317.367188 99.273438 317.3125 99.054688 317.234375 98.847656 C 317.148438 98.644531 317.035156 98.449219 316.902344 98.261719 C 315.820312 96.761719 313.667969 96.476562 312.09375 97.625 C 310.519531 98.773438 310.070312 100.859375 311.097656 102.273438 C 311.226562 102.453125 311.375 102.613281 311.53125 102.757812 C 311.679688 102.902344 311.847656 103.03125 312.027344 103.140625 C 312.378906 103.363281 312.78125 103.507812 313.203125 103.574219 C 313.714844 103.65625 314.257812 103.613281 314.789062 103.457031 L 315.644531 104.773438 L 316.90625 106.722656 C 317.117188 107.046875 317.332031 107.367188 317.535156 107.695312 L 318.117188 108.699219 C 319.652344 111.382812 321.289062 114.015625 322.644531 116.800781 C 323.347656 118.175781 324.085938 119.539062 324.769531 120.921875 L 326.691406 125.148438 L 327.660156 127.253906 C 327.964844 127.964844 328.234375 128.691406 328.527344 129.410156 L 330.242188 133.71875 C 330.546875 134.429688 330.777344 135.171875 331.027344 135.902344 L 331.777344 138.097656 L 332.53125 140.292969 C 332.78125 141.023438 333.042969 141.753906 333.238281 142.503906 L 334.511719 146.96875 C 334.722656 147.714844 334.957031 148.453125 335.144531 149.203125 L 335.667969 151.464844 L 336.722656 155.988281 C 336.820312 156.363281 336.890625 156.746094 336.957031 157.128906 L 337.160156 158.269531 L 338.195312 163.988281 C 338.257812 164.371094 338.292969 164.753906 338.347656 165.140625 L 338.683594 167.746094 L 338.9375 169.753906 L 351.753906 168.246094 C 352.390625 169.582031 353.835938 170.449219 355.394531 170.296875 C 357.332031 170.101562 358.695312 168.320312 358.4375 166.308594 C 358.179688 164.300781 356.40625 162.90625 354.480469 163.195312 "/><g clip-rule="nonzero" clip-path="url(#135661c99c)"><path style=" stroke:none;fill-rule:nonzero;fill:#007ed5;fill-opacity:1;" d="M 371.351562 155.921875 C 370.960938 153.765625 369.097656 152.324219 367.183594 152.703125 C 365.644531 153.003906 364.535156 154.347656 364.359375 155.9375 L 346.84375 159.058594 C 345.382812 150.605469 343.152344 142.300781 340.347656 134.207031 C 337.296875 125.441406 333.503906 116.933594 329.015625 108.804688 L 325.515625 102.789062 L 321.734375 96.941406 C 319.097656 93.125 316.390625 89.347656 313.445312 85.761719 C 308.054688 79.101562 302.140625 72.867188 295.785156 67.121094 L 295.808594 67.09375 C 295.292969 66.601562 294.730469 66.160156 294.195312 65.691406 L 292.742188 67.347656 L 289.066406 71.550781 C 287.769531 71.050781 286.191406 71.449219 285.183594 72.644531 C 283.925781 74.136719 283.964844 76.25 285.273438 77.359375 C 285.4375 77.503906 285.617188 77.617188 285.800781 77.71875 C 285.980469 77.820312 286.167969 77.90625 286.363281 77.964844 C 286.753906 78.09375 287.175781 78.132812 287.597656 78.09375 C 288.441406 78.011719 289.300781 77.609375 289.960938 76.890625 C 290.625 76.175781 290.960938 75.28125 290.964844 74.40625 C 290.964844 73.96875 290.882812 73.539062 290.722656 73.136719 C 290.6875 73.054688 290.644531 72.96875 290.601562 72.890625 L 294.316406 68.761719 C 300.582031 74.429688 306.417969 80.578125 311.730469 87.148438 C 314.640625 90.683594 317.308594 94.410156 319.90625 98.175781 L 323.640625 103.941406 L 327.09375 109.878906 C 331.515625 117.894531 335.257812 126.285156 338.269531 134.933594 C 341.03125 142.914062 343.238281 151.105469 344.675781 159.445312 L 344.652344 159.449219 L 345.027344 161.53125 L 364.792969 158.277344 C 365.066406 158.804688 365.441406 159.257812 365.894531 159.605469 C 366.636719 160.191406 367.546875 160.492188 368.515625 160.347656 C 369.472656 160.203125 370.308594 159.636719 370.820312 158.835938 C 371.324219 158.039062 371.542969 157 371.351562 155.921875 "/></g></g></svg>